<svg width="73" height="30" viewBox="0 0 73 30" fill="none" xmlns="http://www.w3.org/2000/svg">
<path fill-rule="evenodd" clip-rule="evenodd" d="M6.77072 0.862027C6.77072 0.993931 6.98903 0.730124 7.01422 0.862027C7.09818 0.72188 7.62717 0.820809 7.5516 0.697149C7.62717 0.697149 7.62717 0.697149 7.67755 0.738369C7.84548 0.614709 8.24852 0.647685 8.51721 0.540514C8.39966 0.713637 8.76072 0.367391 8.7943 0.598221C8.84468 0.49105 9.18054 0.474562 9.18054 0.540514C9.18054 0.606466 9.27291 0.482807 9.3065 0.482807C9.34008 0.482807 9.3065 0.548758 9.38207 0.557002C9.45763 0.565246 9.60037 0.36739 9.74312 0.515782C9.74312 0.515782 9.74312 0.474562 9.74312 0.441586C9.97232 0.457901 10.2024 0.457901 10.4316 0.441586C10.5931 0.418353 10.7572 0.418353 10.9186 0.441586C11.1873 0.301439 11.2209 0.515781 11.414 0.375634C11.414 0.425098 11.456 0.375634 11.4644 0.441586C11.4728 0.507537 11.5148 0.367392 11.582 0.367392C11.6492 0.367392 11.582 0.367392 11.6575 0.367392C11.7331 0.367392 12.0018 0.474563 12.1194 0.367392C12.4617 0.417637 12.8098 0.417637 13.1521 0.367392C12.9758 0.416855 13.3201 0.466319 13.3033 0.367392C13.2865 0.268464 13.3033 0.40861 13.3033 0.441586C13.4544 0.375634 13.7903 0.367391 13.8491 0.491051C13.8491 0.491051 13.8491 0.491051 13.891 0.491051C13.933 0.491051 13.891 0.491051 13.891 0.416855C14.3467 0.484923 14.8072 0.517998 15.2681 0.515782C15.2681 0.515782 15.2681 0.515781 15.2681 0.581733C15.4108 0.581733 15.6124 0.532269 15.6627 0.581733C15.7131 0.631197 15.6627 0.53227 15.7299 0.53227C15.6375 0.53227 16.1749 0.606466 15.9818 0.573491C15.9818 0.524027 16.0826 0.573491 16.1245 0.573491V0.647685C16.2673 0.565245 16.578 0.647685 16.6451 0.647685C16.7123 0.647685 16.9138 0.647685 16.8634 0.713636C17.2162 0.683731 17.5713 0.6948 17.9214 0.746613C17.9214 0.746613 18.0306 0.787832 17.9718 0.812564C18.1145 0.738369 18.3245 0.895004 18.4084 0.771345C18.4504 0.771345 18.4672 0.837296 18.4084 0.870272C18.6099 0.870272 18.7947 0.952711 18.929 0.870272C19.0298 1.01042 19.2061 0.870272 19.374 0.944467C19.4592 0.909549 19.5505 0.891568 19.6427 0.891568C19.735 0.891568 19.8263 0.909549 19.9114 0.944467C19.9114 0.84554 20.2725 0.944467 20.5076 0.944467C20.7427 0.944467 21.1541 0.787832 21.2885 0.944467C21.3808 0.88676 21.4396 0.944468 21.532 0.895004C21.9434 1.08461 22.506 0.895004 22.9174 1.03515C22.9363 1.01341 22.9506 0.988188 22.9594 0.960956C23.3037 1.02691 23.7403 0.911492 23.9922 0.960956C23.9922 0.870272 24.2189 0.960955 24.2861 0.878516C24.3532 0.796076 24.2861 0.878516 24.2861 0.952711C24.3554 0.903182 24.4362 0.871245 24.5211 0.85974C24.6061 0.848234 24.6926 0.857515 24.7731 0.88676C25.0841 0.762651 25.4213 0.714557 25.7555 0.746613C25.7555 0.746613 25.7555 0.746613 25.7555 0.697149C26.7715 0.697149 27.8882 0.820809 29.1645 0.697149C29.5482 0.635756 29.9395 0.635756 30.3232 0.697149V0.746613C30.8018 0.746613 31.1041 0.622953 31.4987 0.746613C31.7506 0.647685 32.4476 0.746612 32.9682 0.598221C32.9682 0.680661 33.0521 0.598221 33.0941 0.664173C33.1361 0.730124 33.0437 0.589977 33.0941 0.589977C33.1445 0.589977 33.0941 0.631197 33.1445 0.664173C33.1949 0.697149 33.1445 0.614709 33.1445 0.589977C33.3841 0.58482 33.6228 0.560001 33.8582 0.515782C33.7574 0.606465 33.8582 0.515781 33.9338 0.581733C34.0093 0.647685 33.9338 0.540514 33.8834 0.540514C34.16 0.48111 34.4464 0.48111 34.7231 0.540514C34.9116 0.504897 35.1054 0.504897 35.294 0.540514C35.294 0.540514 35.2184 0.540514 35.2184 0.589977C35.2184 0.639441 35.3864 0.589977 35.4368 0.589977C35.4368 0.515782 35.3864 0.589978 35.3444 0.548758C35.3024 0.507538 35.5627 0.548757 35.6551 0.507537C35.6551 0.622953 35.5123 0.507538 35.462 0.589977C36.5871 0.688905 37.4016 0.680662 38.3924 0.697149C38.6695 0.697149 38.9633 0.738369 39.232 0.738369C39.594 0.779377 39.9607 0.742813 40.3068 0.631198C40.7953 0.58777 41.2857 0.56851 41.7762 0.573491C41.7814 0.582026 41.7888 0.589089 41.7976 0.593993C41.8065 0.598897 41.8164 0.601473 41.8266 0.601473C41.8367 0.601473 41.8467 0.598897 41.8555 0.593993C41.8644 0.589089 41.8717 0.582026 41.877 0.573491V0.664173C42.2296 0.664173 42.5571 0.664173 42.809 0.664173C42.8762 0.812564 42.9181 0.664173 43.0777 0.664173C43.0105 0.721881 43.0777 0.664173 43.0777 0.738369C43.0777 0.812564 43.0777 0.697149 43.0777 0.664173C43.0854 0.665181 43.0929 0.667698 43.0997 0.671576C43.1064 0.675454 43.1123 0.680614 43.117 0.686756C43.1217 0.692898 43.1251 0.699898 43.127 0.707345C43.1289 0.714792 43.1292 0.722536 43.1281 0.730124C43.2792 0.573489 43.6654 0.787833 43.9677 0.820808C44.3364 0.853898 44.7074 0.853898 45.0761 0.820808C45.277 0.769117 45.4881 0.769117 45.689 0.820808C49.8873 0.820808 54.6986 0.557002 58.7122 0.144805H59.0648C59.4259 0.144805 59.7953 0.0541207 60.1648 0.0541207C60.5342 0.0541207 61.0045 0.0953405 61.4159 0.0541207C62.0689 -0.00725218 62.7254 -0.0237799 63.3807 0.00465746C63.6074 0.00465746 63.8425 0.00465746 64.0692 0.00465746C64.7242 0.00465746 65.3455 0.194268 66.0172 0.243731C66.3313 0.228281 66.6462 0.242084 66.9577 0.284952C67.2478 0.432384 67.5283 0.59759 67.7973 0.779589C67.9653 0.862029 68.108 0.927979 68.2507 1.01042C68.7436 1.23152 69.1712 1.57192 69.4934 1.99969C69.4934 2.04916 69.6026 1.99969 69.6446 2.06564C70.585 3.54131 70.8873 5.72596 71.1644 7.79519C71.186 8.76979 71.2729 9.74193 71.4247 10.7053C71.559 12.3541 71.7689 14.0441 72.004 15.6517C72.0628 16.0309 72.2643 16.4761 72.2979 16.847C72.3315 17.218 72.3735 17.8281 72.3819 18.2897C72.3819 18.4629 72.3819 18.6442 72.3819 18.8256C72.4574 19.65 72.2643 20.4744 72.2811 21.2988C72.2996 21.9487 72.2433 22.5986 72.1132 23.2361C72.1369 23.3681 72.1163 23.5041 72.0544 23.6236C71.9788 24.1512 71.8193 24.8272 71.7018 25.396C71.6446 25.679 71.5574 25.9553 71.4415 26.2204C71.2786 26.4914 71.0811 26.7407 70.8537 26.9624C70.7135 27.1946 70.5503 27.4127 70.3667 27.6136C70.2995 27.6631 70.182 27.6961 70.098 27.762C69.6705 28.1323 69.2158 28.4712 68.7377 28.776C68.7107 28.7905 68.6804 28.798 68.6496 28.798C68.6188 28.798 68.5885 28.7905 68.5614 28.776C68.5614 28.776 68.5614 28.776 68.5614 28.8255C68.1155 28.9468 67.6554 29.0105 67.1928 29.0151C66.8949 29.1246 66.5787 29.1778 66.2607 29.1718C66.2607 29.1718 66.2607 29.1718 66.3111 29.1223C66.3615 29.0728 66.3111 29.1223 66.2607 29.1223C66.2104 29.1223 66.2607 29.2047 66.2104 29.2212C65.9837 29.2212 65.7653 29.2789 65.4799 29.2212C65.4799 29.2212 65.4799 29.2212 65.4799 29.1718C65.3035 29.1718 64.9677 29.2459 64.8417 29.1223C64.0583 29.165 63.2724 29.1207 62.4991 28.9904C62.4991 28.9079 62.4991 28.9162 62.4991 28.9904C62.2797 29.0003 62.0603 28.9696 61.8525 28.8997C61.8525 28.8997 61.8525 28.9492 61.9533 28.8997C60.8953 28.8997 59.6526 28.8173 58.5946 28.7101C58.603 28.686 58.603 28.66 58.5946 28.6359C58.4771 28.6359 58.5946 28.7019 58.5023 28.7348C58.3815 28.7014 58.2536 28.7014 58.1328 28.7348C58.1328 28.6771 58.1328 28.6441 58.074 28.6359C58.2 28.7513 57.713 28.6359 57.6626 28.6359C57.5312 28.6451 57.3993 28.6451 57.268 28.6359C57.268 28.6359 57.268 28.6359 57.268 28.5617C57.268 28.4875 57.1672 28.5617 57.1 28.5617C57.0329 28.5617 57.1 28.6359 57.1756 28.6359C57.2512 28.6359 57.0832 28.6359 57.0748 28.6359C56.5735 28.6946 56.0658 28.6723 55.5718 28.5699C55.5414 28.5955 55.5027 28.6095 55.4627 28.6095C55.4227 28.6095 55.384 28.5955 55.3535 28.5699C55.3535 28.5699 55.4123 28.5699 55.4039 28.4958C55.3955 28.4216 55.3367 28.5535 55.3284 28.5947C55.0009 28.5947 54.8078 28.4875 54.5475 28.5947C54.5475 28.5947 54.5475 28.5947 54.5475 28.5452C54.4412 28.5524 54.3346 28.5524 54.2284 28.5452C54.2284 28.4875 54.2788 28.4463 54.2284 28.4051C54.1444 28.4958 54.0353 28.4958 54.0605 28.5287C54.0856 28.5617 53.7666 28.5287 53.8337 28.4875C53.5143 28.5879 53.1708 28.5879 52.8513 28.4875C52.7758 28.5864 52.6414 28.5452 52.3643 28.5535C52.3722 28.5447 52.3819 28.5377 52.3928 28.5329C52.4036 28.528 52.4154 28.5255 52.4273 28.5255C52.4392 28.5255 52.451 28.528 52.4619 28.5329C52.4727 28.5377 52.4824 28.5447 52.4903 28.5535C52.4903 28.4793 52.3979 28.4958 52.4903 28.438C52.4147 28.6606 52.0285 28.537 51.9277 28.5782C51.827 28.6194 51.9277 28.4793 51.8773 28.4628C51.827 28.4463 51.8773 28.5205 51.8773 28.5782C51.7598 28.5782 51.701 28.5287 51.6003 28.471V28.5205C51.3484 28.6112 51.1552 28.5205 50.9873 28.5864C50.9873 28.4793 50.7102 28.6689 50.7438 28.4793C50.6346 28.4793 50.6178 28.6194 50.4499 28.5864C50.4499 28.471 50.3408 28.5864 50.3492 28.4958C50.3492 28.6112 50.2568 28.6194 50.0553 28.6029C50.1056 28.5122 50.0553 28.504 49.9293 28.504C49.934 28.5285 49.9461 28.5511 49.9641 28.5688C49.9821 28.5865 50.0051 28.5984 50.0301 28.6029C49.9629 28.6771 49.6438 28.5122 49.6438 28.6606C49.5783 28.6299 49.5066 28.6139 49.4339 28.6139C49.3613 28.6139 49.2896 28.6299 49.224 28.6606C49.224 28.5699 49.1568 28.6029 49.1232 28.5699C49.1232 28.7101 48.8294 28.6277 48.7538 28.6277C48.6782 28.6277 48.5103 28.7266 48.4095 28.6277C48.3889 28.6481 48.3743 28.6738 48.3676 28.7018C48.2164 28.6524 48.0233 28.6277 47.9729 28.7018C47.8806 28.7018 47.6874 28.6441 47.6286 28.7018C47.5699 28.6194 47.5363 28.6441 47.4355 28.7018C47.3348 28.7596 47.4775 28.7018 47.4775 28.6277C47.4775 28.5535 47.3684 28.6771 47.2592 28.7101C47.269 28.6863 47.269 28.6597 47.2592 28.6359C47.192 28.6359 47.1836 28.7348 47.1584 28.6359C47.0829 28.7925 46.6546 28.8255 46.5287 28.7266C46.5287 28.8338 46.1592 28.8008 46.2348 28.7266C46.0772 28.728 45.92 28.7418 45.7646 28.7678C45.7744 28.7355 45.7744 28.7011 45.7646 28.6689C45.6638 28.6689 45.6638 28.7513 45.5715 28.7431C45.4791 28.7348 45.5715 28.6936 45.5715 28.6524C45.5715 28.6112 45.4875 28.7431 45.4287 28.776C45.3049 28.7266 45.1663 28.7266 45.0425 28.776C45.1097 28.6854 44.9417 28.776 44.9417 28.776C44.9417 28.776 44.9921 28.7266 44.9417 28.6771C44.8922 28.711 44.8518 28.7563 44.8242 28.809C44.8242 28.6689 44.6395 28.8667 44.5975 28.6936C44.5555 28.6936 44.5975 28.7925 44.4799 28.7678C44.5103 28.7313 44.5331 28.6893 44.5471 28.6441C44.4799 28.6936 44.4295 28.6441 44.3792 28.7018C44.3288 28.7596 44.3792 28.7019 44.4295 28.7513C44.3204 28.7513 44.2196 28.7513 44.0853 28.7513C44.0971 28.7391 44.1037 28.7228 44.1037 28.706C44.1037 28.6891 44.0971 28.6729 44.0853 28.6606C43.9845 28.6606 44.0181 28.8008 43.867 28.7596C43.867 28.6194 43.5311 28.6112 43.4219 28.6771C43.3128 28.7431 43.3296 28.6277 43.296 28.5864C43.1952 28.7183 43.296 28.5864 43.1029 28.6441C43.1029 28.6441 43.1029 28.7101 43.1029 28.7183C43.1029 28.7266 43.0189 28.7183 43.0273 28.6441C43.0357 28.5699 43.1113 28.6936 43.1113 28.776C42.9853 28.776 42.8594 28.776 42.7502 28.776C42.6411 28.776 42.8174 28.776 42.8174 28.7018C42.8174 28.6277 42.6746 28.7018 42.6746 28.8008C42.6746 28.8997 42.5319 28.8008 42.5235 28.6854C42.5151 28.5699 42.5235 28.7348 42.5235 28.7843C42.5235 28.8338 42.3472 28.7843 42.2548 28.6936C42.2548 28.8008 42.1037 28.6936 42.0281 28.6359C41.9525 28.5782 41.9777 28.6359 41.9273 28.6359C41.9861 28.776 41.8098 28.6359 41.709 28.7183C41.709 28.6359 41.7846 28.7183 41.835 28.6606C41.6922 28.5535 41.6083 28.7183 41.4152 28.6606C41.4152 28.5947 41.4152 28.6029 41.4152 28.5452C41.4152 28.4875 41.3396 28.6277 41.3144 28.5452C41.2903 28.5837 41.259 28.6172 41.222 28.6441C41.1549 28.6441 41.2892 28.5617 41.222 28.5287C41.1549 28.4958 41.0793 28.5287 41.0289 28.6277C40.9785 28.7266 41.0289 28.6277 41.0289 28.5617C41.0289 28.4958 41.0289 28.6112 40.9617 28.6112C40.8946 28.6112 40.9114 28.504 40.8526 28.4958C40.7938 28.4875 40.6007 28.4958 40.5419 28.6277C40.5419 28.6277 40.4495 28.6277 40.3908 28.6277C40.332 28.6277 40.4579 28.5782 40.4663 28.5287C40.4747 28.4793 40.4663 28.5782 40.5167 28.5782C40.5167 28.4298 40.4328 28.5782 40.3656 28.5782C40.2984 28.5782 40.3656 28.5782 40.3656 28.6441C40.3656 28.7101 40.2396 28.5452 40.248 28.6441C40.2564 28.7431 40.248 28.6441 40.248 28.5699C40.248 28.4958 40.1892 28.5699 40.1305 28.5699C40.0717 28.5699 40.1305 28.5699 40.1305 28.4958C39.9877 28.5617 39.9206 28.6194 39.7778 28.4958C39.5763 28.6524 39.3328 28.3309 39.1733 28.5617C39.1229 28.5617 39.1061 28.4628 39.0473 28.4463C38.9885 28.4298 38.8626 28.4463 38.7282 28.537C38.6275 28.2897 38.5015 28.6029 38.3588 28.537V28.471C38.3588 28.471 38.216 28.6194 38.2076 28.471C38.2076 28.471 38.2076 28.5205 38.2076 28.5452C38.2076 28.5699 38.1489 28.4875 38.2076 28.4545C38.2664 28.4216 38.0985 28.4545 38.0649 28.5287C38.0313 28.6029 37.8382 28.5287 37.6703 28.5287C37.6743 28.5127 37.6842 28.4987 37.6982 28.4896C37.7122 28.4804 37.7292 28.4767 37.7458 28.4793C37.7067 28.4465 37.6776 28.4037 37.6619 28.3556C37.6031 28.3556 37.5779 28.4216 37.5443 28.4628C37.4855 28.3474 37.3344 28.537 37.3764 28.4133C37.4184 28.2897 37.2504 28.4133 37.2756 28.4958C37.3008 28.5782 37.2252 28.4051 37.1077 28.4958C37.1077 28.4216 37.1581 28.3886 37.1077 28.3721C37.0573 28.3556 37.1077 28.438 37.1077 28.4463C37.1077 28.4545 36.797 28.4463 36.8894 28.4463C36.8138 28.4463 36.7886 28.4958 36.7718 28.5452C36.5451 28.5452 36.2764 28.4216 36.1337 28.5452C36.0413 28.3638 35.8902 28.5452 35.739 28.5452C35.5879 28.5452 35.739 28.5452 35.739 28.4463C35.604 28.4798 35.4626 28.4798 35.3276 28.4463C35.3312 28.458 35.3377 28.4686 35.3465 28.4772C35.3553 28.4858 35.3661 28.4922 35.378 28.4958C35.378 28.5782 35.2772 28.4298 35.3024 28.5452C35.3024 28.5452 35.2436 28.504 35.252 28.4545C35.2604 28.4051 35.1765 28.5452 35.1513 28.4545C35.1261 28.3638 35.0589 28.5287 35.0085 28.5535C34.9582 28.5782 34.8406 28.504 34.7902 28.5535C34.7547 28.5372 34.716 28.5288 34.6769 28.5288C34.6377 28.5288 34.599 28.5372 34.5635 28.5535C34.5635 28.5535 34.5635 28.5122 34.5635 28.4875C34.5635 28.4628 34.5047 28.5864 34.3956 28.5617C34.2864 28.537 34.3956 28.5205 34.3956 28.4875C34.236 28.4875 34.1353 28.6194 34.0009 28.5287C34.0009 28.6112 33.7574 28.5287 33.8246 28.5287C33.8918 28.5287 33.8246 28.5287 33.8246 28.6029C33.5811 28.504 33.6231 28.6029 33.4048 28.6029C33.4048 28.6029 33.4048 28.6029 33.4552 28.6029C33.3376 28.5287 33.2788 28.6524 33.0857 28.6029C33.0857 28.6029 33.0857 28.6029 33.0857 28.5287C33.0613 28.5376 33.0345 28.5376 33.0101 28.5287C33.0101 28.5287 33.0101 28.5287 33.0605 28.5287C32.9346 28.5782 32.7414 28.5287 32.6743 28.6194C32.6186 28.5499 32.5444 28.497 32.4599 28.4664C32.3754 28.4359 32.2839 28.4289 32.1957 28.4463C32.1957 28.4463 32.1957 28.4958 32.246 28.4958C32.2964 28.4958 32.1621 28.4958 32.1033 28.4958C32.1957 28.4298 32.1033 28.4463 32.0025 28.4463C31.9018 28.4463 31.7758 28.4463 31.6583 28.5122C31.6583 28.4628 31.7423 28.5122 31.7339 28.438C31.7255 28.3638 31.5743 28.4958 31.6331 28.438C31.5659 28.5122 31.3392 28.5122 31.314 28.5205C31.2172 28.541 31.117 28.541 31.0201 28.5205C31.0201 28.5205 31.0201 28.438 31.0201 28.4298C31.0201 28.4216 31.0201 28.4957 30.9446 28.504C31.0537 28.504 30.6927 28.4545 30.8018 28.504C30.7095 28.504 30.6927 28.504 30.6507 28.4545C30.6507 28.504 30.5919 28.5617 30.508 28.5617C30.5178 28.5379 30.5178 28.5113 30.508 28.4875C30.424 28.4875 30.5079 28.5287 30.4408 28.5864C30.3736 28.6441 30.3652 28.5864 30.3904 28.4958C30.2561 28.4958 30.298 28.5947 30.1721 28.5947C30.2728 28.4793 30.0377 28.5535 29.979 28.5947C29.9202 28.6359 29.979 28.5122 29.9202 28.504C29.8275 28.5203 29.7372 28.548 29.6515 28.5864C29.6515 28.5864 29.6515 28.5864 29.6515 28.5122H29.5927C29.5927 28.5699 29.5088 28.6112 29.5255 28.5122C29.4584 28.6029 29.4248 28.5122 29.3324 28.6112C29.1561 28.438 28.7866 28.6771 28.6355 28.5205C28.6355 28.5205 28.6355 28.6029 28.6355 28.6194C28.6355 28.6359 28.3248 28.6194 28.2409 28.5617C28.1149 28.6771 27.9806 28.6277 27.8462 28.5617C27.8545 28.5858 27.8545 28.6118 27.8462 28.6359C27.8462 28.6359 27.8462 28.6359 27.7707 28.5864C27.6951 28.537 27.2333 28.6771 26.9898 28.6689C26.982 28.6677 26.9741 28.6681 26.9666 28.6699C26.959 28.6718 26.9519 28.6751 26.9456 28.6797C26.9393 28.6844 26.9341 28.6901 26.9301 28.6968C26.9262 28.7034 26.9236 28.7107 26.9226 28.7183C26.7087 28.6921 26.4915 28.7089 26.2845 28.7678C26.2845 28.7183 26.3432 28.7183 26.3516 28.6689C26.36 28.6194 26.2593 28.6689 26.2593 28.7678C26.1501 28.6936 26.2005 28.7678 26.1081 28.7678C26.0158 28.7678 25.6883 28.7678 25.47 28.7678V28.809C25.1271 28.7973 24.7839 28.8194 24.4456 28.875C24.496 28.7843 24.4456 28.875 24.3868 28.8008C24.3868 28.875 24.2189 28.8585 24.2273 28.9327C24.1181 28.8502 24.0342 28.9327 24.0258 28.842C23.7907 28.9904 23.5975 28.9079 23.3624 28.9657C23.3624 28.9657 23.3624 28.9657 23.3624 28.9162C23.3624 28.8667 23.2869 28.9821 23.2869 28.9162C23.2113 29.0481 22.9762 28.9657 22.8502 28.9574C22.8538 28.9691 22.8603 28.9797 22.8691 28.9883C22.8779 28.997 22.8887 29.0033 22.9006 29.0069C22.9006 29.0069 22.5815 29.0646 22.6739 29.0069C22.5144 29.0069 22.3296 29.0893 22.2793 29.0069C22.1893 29.0511 22.0902 29.0742 21.9896 29.0742C21.889 29.0742 21.7898 29.0511 21.6999 29.0069C21.6844 29.0122 21.6712 29.0223 21.6621 29.0357C21.653 29.0491 21.6486 29.065 21.6495 29.0811C21.4904 29.0362 21.3216 29.0362 21.1625 29.0811C21.0869 29.0151 20.7343 29.0811 20.5244 29.0811C20.5244 29.0811 20.5244 29.0811 20.5244 29.0316C20.39 29.0893 20.1045 29.0316 20.0374 29.1223C20.0374 29.1223 20.0374 29.1223 20.0374 29.0563C20.0374 28.9904 19.987 29.0563 19.987 29.0069C19.987 28.9574 19.9282 29.0069 19.987 29.0563C19.7108 29.1196 19.4235 29.1196 19.1473 29.0563C19.1473 29.1388 18.7191 29.0563 18.4336 29.1058C18.2858 29.1243 18.1398 29.1547 17.997 29.1965C17.9214 29.1965 17.8375 29.1965 17.8459 29.1058C17.7995 29.1296 17.7593 29.1634 17.7283 29.2047C17.6779 29.2047 17.6779 29.2047 17.6779 29.1305C17.6779 29.0563 17.4596 29.246 17.5268 29.1305C17.4596 29.1305 17.5268 29.2212 17.4344 29.2047C17.3421 29.1882 17.3001 29.1635 17.2329 29.2047C17.2427 29.1809 17.2427 29.1543 17.2329 29.1305C17.1573 29.1305 17.1153 29.1882 17.0566 29.1305C17.107 29.246 17.0566 29.1305 17.0146 29.2047C16.9726 29.2789 17.0146 29.2047 17.0146 29.1553C17.0146 29.1058 16.9558 29.1553 16.9138 29.2047C16.8718 29.2542 16.9138 29.147 16.8634 29.114C16.8131 29.0811 16.7039 29.114 16.6955 29.213C16.6955 29.1388 16.5108 29.213 16.4688 29.1305C16.5444 29.213 16.3261 29.1305 16.3009 29.2295C16.2757 29.3284 16.1413 29.18 16.2001 29.114C16.2001 29.2295 16.0742 29.114 16.0322 29.213C15.9902 29.3119 16.0322 29.1635 15.9566 29.1718C15.881 29.18 15.8475 29.1718 15.7131 29.1718C15.5788 29.1718 15.6207 29.2295 15.562 29.2295C15.5032 29.2295 15.3521 29.1635 15.2681 29.1635C15.1841 29.1635 15.1589 29.2295 15.1002 29.2212C15.0414 29.213 15.0246 29.2212 15.0246 29.2212C14.9534 29.2626 14.8722 29.2844 14.7895 29.2844C14.7068 29.2844 14.6256 29.2626 14.5544 29.2212C14.4956 29.3614 14.3529 29.2212 14.2689 29.3284C14.2689 29.2624 14.2689 29.2789 14.2689 29.2377C14.2689 29.1965 14.2185 29.2377 14.1765 29.2377C14.1345 29.2377 14.1765 29.2377 14.2269 29.2377C14.0506 29.2872 13.7987 29.2377 13.5888 29.3037C13.7147 29.2047 13.4712 29.3037 13.5888 29.2377C13.4376 29.3284 13.3117 29.2377 13.1941 29.2954C13.0766 29.3531 13.1941 29.2212 13.1186 29.2047C13.043 29.1882 13.1186 29.2624 13.1186 29.3037C13.0368 29.2766 12.9484 29.2766 12.8667 29.3037C12.8667 29.2624 12.8079 29.246 12.7659 29.1882C12.7239 29.1305 12.7659 29.2459 12.7659 29.2872C12.7659 29.3284 12.6232 29.2872 12.6148 29.2872C12.6064 29.2872 12.6148 29.2377 12.6148 29.213C12.4636 29.213 12.3629 29.3861 12.3713 29.213C12.2453 29.3037 12.0438 29.3037 12.0018 29.213C11.8591 29.3119 11.7751 29.213 11.6072 29.2789C11.4392 29.3449 11.3133 29.1965 11.1202 29.2789C11.1202 29.2789 10.9942 29.3614 11.0194 29.2789C11.0446 29.1965 10.9186 29.3284 10.8515 29.3366C10.9774 29.2624 10.5912 29.2542 10.5996 29.3366C10.608 29.4191 10.5996 29.2954 10.5492 29.2624C10.4988 29.2295 10.482 29.3449 10.3813 29.3201C10.2805 29.2954 10.3813 29.2707 10.3813 29.2212C10.3225 29.3284 10.2301 29.2212 10.121 29.3284C9.99502 29.2295 9.95303 29.3779 9.74312 29.246C9.74312 29.246 9.74312 29.246 9.74312 29.2954C9.74312 29.3449 9.37367 29.3449 9.44084 29.2954C9.23932 29.3449 9.09658 29.2954 8.82789 29.3696C8.87827 29.3201 8.82789 29.3201 8.82789 29.2707C8.71873 29.3449 8.61797 29.2707 8.48362 29.3366C8.48362 29.3366 8.48363 29.3366 8.53401 29.3366C8.58438 29.3366 8.33249 29.3366 8.18974 29.3366C8.047 29.3366 8.09738 29.2707 8.0386 29.2707C7.97983 29.2707 7.77831 29.3614 7.84548 29.2295C7.8035 29.2295 7.8035 29.2295 7.76991 29.2295C7.73633 29.2295 7.82869 29.2295 7.82029 29.3037C7.8119 29.3779 7.71114 29.3037 7.71953 29.2047C7.66422 29.2364 7.60282 29.2564 7.53922 29.2635C7.47562 29.2706 7.41121 29.2646 7.35008 29.246C7.35008 29.246 7.35008 29.18 7.35008 29.1718C7.35008 29.1635 7.0646 29.2789 7.08139 29.1718C7.03101 29.1718 6.93865 29.1718 6.88827 29.2212C6.84629 29.0893 6.43485 29.2212 6.21654 29.0811C6.03182 29.0811 5.68755 29.1635 5.52802 29.0811C5.52269 29.0694 5.51993 29.0568 5.51993 29.044C5.51993 29.0312 5.52269 29.0185 5.52802 29.0069C5.52802 29.0069 5.46085 29.0069 5.45245 29.0646C5.45245 28.9327 5.24253 29.0646 5.20055 28.8997C5.10818 28.9657 5.09139 28.842 4.98224 28.8997C4.87308 28.9574 4.91506 28.8997 4.90667 28.809C4.89827 28.7183 4.86468 28.875 4.85629 28.7596C4.84789 28.6441 4.71355 28.8338 4.73034 28.7596C4.64637 28.7596 4.62118 28.7596 4.51203 28.7596C4.51203 28.6441 4.31891 28.7101 4.31051 28.5947C4.23494 28.6606 4.20135 28.5947 4.10899 28.5947C4.01663 28.5947 4.10899 28.537 4.10899 28.5205C4.10899 28.504 4.15097 28.5205 4.10899 28.4298C4.02502 28.4793 4.10899 28.5452 4.06701 28.5699C4.02502 28.5947 3.96625 28.4216 3.94945 28.5699C3.90747 28.5699 3.86549 28.5699 3.86549 28.4793C3.86549 28.3886 3.75633 28.4793 3.64718 28.4793C3.53802 28.4793 3.60519 28.3638 3.49604 28.4133C3.35329 28.2814 3.36169 28.2567 3.14338 28.2567C3.19376 28.0918 2.92507 28.166 2.91667 28.0258C2.77393 28.0836 2.79912 27.8857 2.64798 27.9352C2.69836 27.8775 2.64798 27.8115 2.64798 27.7703C2.64798 27.7291 2.64798 27.8445 2.64798 27.8857C2.52203 27.7373 2.27013 27.7043 2.24494 27.5642C2.17777 27.5642 1.92587 27.457 1.96785 27.3334C2.00984 27.2097 1.92587 27.3334 1.8419 27.3334C1.75794 27.3334 1.76633 27.2509 1.8419 27.1602C1.91747 27.0695 1.8419 27.2179 1.77473 27.2179C1.77473 27.0613 1.33811 26.9541 1.31292 26.748C1.31292 26.748 1.31292 26.748 1.3633 26.748C1.28507 26.6728 1.20084 26.6039 1.1114 26.5419C1.1114 26.4925 1.1114 26.4842 1.1114 26.443C1.1114 26.4018 1.04422 26.443 1.1114 26.4925C1.17857 26.5419 1.04422 26.3441 0.951862 26.3276C0.973596 26.2973 0.990577 26.2639 1.00224 26.2287C1.00224 26.1627 0.951861 26.2287 0.901481 26.2287C0.851102 26.2287 0.901482 26.0803 0.792326 25.9896C0.884689 25.9896 0.792325 25.8659 0.834308 25.767C0.876291 25.6681 0.767135 25.767 0.758739 25.7011C0.750342 25.6351 0.758739 25.7505 0.716756 25.7505C0.674773 25.7505 0.716757 25.7505 0.80912 25.7505C0.80912 25.9236 0.624394 25.7505 0.73355 25.6598C0.842706 25.5691 0.73355 25.6598 0.65798 25.6598C0.626436 25.4406 0.543041 25.2317 0.414478 25.0498C0.4279 24.9917 0.460346 24.9396 0.506841 24.9014C0.372495 24.9014 0.506841 24.6788 0.355702 24.687C0.414478 24.5634 0.170976 24.3738 0.355702 24.1842C0.296925 24.1842 0.355702 24.2913 0.288529 24.2584C0.238749 24.0831 0.238749 23.8978 0.288529 23.7225H0.212959C0.330512 23.6318 0.154183 23.434 0.212959 23.335C0.154183 23.335 0.212959 23.335 0.154183 23.2361C0.0954066 23.1372 0.154183 23.2361 0.204562 23.2361C0.254942 23.2361 0.154183 23.1207 0.204562 23.1619C0.0870096 23.03 0.204562 22.9228 0.204562 22.7745L0.137389 22.8486C0.0618198 22.8486 0.13739 22.7167 0.0786133 22.7332C0.170976 22.692 0.0786136 22.4942 0.16258 22.42C0.0618204 22.42 0.0786136 22.2303 0.16258 22.1562C0.246546 22.082 0.16258 22.1562 0.16258 22.2056C0.175351 22.0437 0.175351 21.8811 0.16258 21.7192C0.187083 21.7274 0.213646 21.7274 0.238149 21.7192C0.238149 21.6615 0.238149 21.6698 0.16258 21.6698C0.0870102 21.6698 0.16258 21.6038 0.16258 21.5461C0.16258 21.4884 0.238149 21.5873 0.280132 21.5956C0.234241 21.5368 0.183705 21.4817 0.128993 21.4307C0.128993 21.4307 0.229752 21.3235 0.128993 21.3318C0.229752 21.3318 0.196165 21.1916 0.128993 21.1174C0.0618196 21.0432 0.128992 21.068 0.196165 21.1174C0.157042 21.0419 0.128785 20.9615 0.112201 20.8783C0.112201 20.8783 0.154182 20.8783 0.187769 20.8783C0.221355 20.8783 0.120596 20.8783 0.137389 20.7629C0.154183 20.6475 0.137389 20.7629 0.212959 20.7629C0.288529 20.7629 0.212959 20.6722 0.154183 20.5403C0.154183 20.5403 0.196166 20.5898 0.229753 20.5898C0.263339 20.5898 0.179373 20.4579 0.170977 20.3013C0.221356 20.3013 0.170976 20.3672 0.271735 20.3507C0.162579 20.1694 0.271735 20.0045 0.204562 19.8891C0.280132 19.9385 0.204562 19.8891 0.204562 19.8149C0.305322 19.922 0.254941 19.8149 0.254941 19.6747C0.265535 19.6793 0.27697 19.6816 0.288529 19.6816C0.300087 19.6816 0.311522 19.6793 0.322116 19.6747V19.584C0.221357 19.584 0.229753 19.6665 0.322116 19.584C0.154184 19.3944 0.322116 19.2213 0.246546 19.0317C0.246546 19.0317 0.296926 19.0317 0.322116 19.0317C0.271736 18.8915 0.372495 18.7844 0.280132 18.6525C0.380891 18.6525 0.280132 18.7102 0.338908 18.7432C0.464857 18.6442 0.338908 18.6277 0.338908 18.5041C0.360886 18.5101 0.384103 18.5101 0.406081 18.5041C0.330511 18.4464 0.406082 18.2568 0.448065 18.2073C0.490048 18.1578 0.338908 18.2073 0.355702 18.2815C0.372495 18.3557 0.414477 18.1908 0.397684 18.1166C0.380891 18.0424 0.439667 18.0507 0.338908 18.0177C0.338908 17.9517 0.380892 18.0754 0.439668 18.0177C0.364098 17.8775 0.439668 17.7786 0.498444 17.6302C0.422875 17.6302 0.498444 17.7456 0.355702 17.7292C0.374467 17.6814 0.374467 17.6285 0.355702 17.5808C0.406081 17.5808 0.414478 17.5808 0.355702 17.5808C0.296925 17.5808 0.439668 17.5313 0.456462 17.5066C0.473255 17.4818 0.456462 17.4571 0.456462 17.4076C0.440475 17.409 0.425347 17.4153 0.41327 17.4257C0.401193 17.4361 0.392794 17.45 0.389289 17.4653C0.389289 17.3911 0.389289 17.218 0.532031 17.284C0.532031 17.1933 0.43127 17.2015 0.397684 17.1521C0.364098 17.1026 0.599204 17.284 0.590807 17.0944C0.590807 17.0944 0.523634 17.0944 0.498444 17.1686C0.473254 17.2428 0.607601 16.9954 0.448065 17.0037C0.448065 16.8141 0.406082 16.8141 0.448065 16.6409C0.615997 16.6822 0.448065 16.4596 0.448065 16.5173C0.448065 16.575 0.288529 16.3194 0.288529 16.4101C0.288529 16.5008 0.288529 16.3029 0.288529 16.2947C0.288529 16.2865 0.288529 16.3277 0.288529 16.4101C0.288529 16.4926 0.330512 16.2452 0.288529 16.1628C0.246546 16.0804 0.288529 16.2535 0.246546 16.2865C0.204563 16.3194 0.246545 15.9979 0.330511 16.0391C0.290549 16.0065 0.256485 15.9675 0.229753 15.9237C0.229753 15.8578 0.280132 15.8743 0.305322 15.8495C0.179373 15.8495 0.246546 15.7506 0.221356 15.5857C0.221356 15.5857 0.221356 15.5857 0.288529 15.5857C0.355702 15.5857 0.246546 15.4868 0.238149 15.4208C0.229753 15.3549 0.313719 15.3631 0.305322 15.2972C0.296926 15.2312 0.305322 15.3549 0.229753 15.3466C0.154183 15.3384 0.347305 15.223 0.229753 15.223C0.229753 15.1735 0.296926 15.1653 0.305322 15.223C0.313719 15.2807 0.238149 15.223 0.305322 15.1076C0.372495 14.9922 0.380892 15.1076 0.431271 15.1076C0.420386 15.0755 0.420386 15.0408 0.431271 15.0086C0.380892 15.0086 0.347305 15.0086 0.355702 15.0664C0.364098 15.1241 0.355702 14.9345 0.355702 14.8685C0.271735 14.9592 0.355701 14.7696 0.397684 14.6789C0.439667 14.5882 0.397685 14.6789 0.322116 14.6789C0.246546 14.6789 0.322116 14.5635 0.322116 14.481C0.322116 14.3986 0.364099 14.481 0.372495 14.4068C0.380892 14.3326 0.372495 14.2832 0.313719 14.1925C0.372495 14.2914 0.389289 14.1925 0.380892 14.0688C0.372495 13.9452 0.380892 14.209 0.313719 14.176C0.313719 13.9617 0.313718 13.8298 0.397684 13.7556C0.322114 13.6566 0.397685 13.5495 0.355702 13.4011C0.490047 13.4918 0.355701 13.2197 0.473254 13.2774C0.313718 13.129 0.473255 12.9312 0.389289 12.8405C0.389289 12.791 0.490047 12.7745 0.48165 12.8405C0.473254 12.9064 0.481652 12.8405 0.532031 12.8405C0.582411 12.8405 0.532031 12.758 0.431271 12.7663C0.473254 12.5025 0.431271 12.3871 0.55722 12.2552C0.511325 12.229 0.475813 12.1883 0.456462 12.1398C0.456462 12.0573 0.50684 12.0326 0.548823 11.9914C0.406081 11.8595 0.624394 11.7276 0.506841 11.6039C0.548824 11.6039 0.548824 11.6039 0.582411 11.6039C0.481651 11.5132 0.58241 11.472 0.624393 11.3648C0.548823 11.4802 0.624393 10.9444 0.624393 10.9526C0.624393 10.9609 0.725153 11.0021 0.725153 10.9526C0.725153 10.9032 0.641186 10.9526 0.624393 10.9526C0.6076 10.9526 0.691566 10.6641 0.624393 10.5404C0.725152 10.5404 0.624393 10.5404 0.624393 10.6394C0.624393 10.7383 0.624393 10.5899 0.674772 10.5899C0.725152 10.5899 0.540427 10.4415 0.615996 10.3508C0.691566 10.2601 0.615997 10.4168 0.666377 10.4168C0.687225 10.3978 0.703928 10.3748 0.715475 10.3493C0.727022 10.3238 0.733172 10.2963 0.73355 10.2684C0.73355 10.2189 0.674773 10.2684 0.63279 10.2684C0.590807 10.2684 0.63279 10.0705 0.708359 10.12C0.708359 10.0375 0.641186 10.12 0.63279 10.12C0.624393 10.12 0.632791 9.98808 0.741947 9.94686C0.741947 9.94686 0.741947 9.94686 0.741947 9.87267C0.731353 9.8772 0.719918 9.87955 0.708359 9.87955C0.696801 9.87955 0.685366 9.8772 0.674772 9.87267C0.725152 9.87267 0.674773 9.7655 0.767136 9.77374C0.859498 9.78198 0.725152 9.66657 0.767136 9.62535C0.65798 9.62535 0.767136 9.50169 0.834308 9.46047C0.901481 9.41925 0.767135 9.46047 0.758739 9.50993C0.750342 9.5594 0.75874 9.1472 0.867896 9.09774C0.838228 9.01739 0.832745 8.93035 0.852101 8.84702C0.871458 8.7637 0.914834 8.6876 0.977051 8.62783C0.867895 8.57837 0.977051 8.62783 0.918275 8.48768C0.943239 8.483 0.96888 8.483 0.993845 8.48768C0.901482 8.41349 1.05262 8.37227 0.993845 8.22388C1.103 8.22388 0.993845 8.1167 1.08621 8.17441C0.943465 8.04251 1.15338 7.92709 1.08621 7.81168C1.11466 7.7913 1.14571 7.77467 1.17857 7.76221C1.17857 7.70725 1.16178 7.67428 1.12819 7.66329C1.12819 7.58085 1.19536 7.66329 1.24574 7.66329C1.29612 7.66329 1.14498 7.58909 1.14498 7.50665C1.14498 7.42421 1.14498 7.39124 1.23735 7.42421C1.32971 7.45719 1.23735 7.42421 1.18697 7.42421C1.37169 7.27582 1.24574 7.17689 1.32131 7.00377C1.32131 7.08621 1.45566 6.93782 1.46405 6.85538C1.47245 6.77294 1.42207 6.9708 1.3633 6.85538C1.46406 6.72348 1.3633 6.69874 1.53123 6.63279C1.53123 6.63279 1.45566 6.63279 1.47245 6.51738C1.48924 6.40196 1.47245 6.60806 1.57321 6.58333C1.57321 6.41845 1.57321 6.1464 1.79992 6.04747C1.79992 5.96503 1.72435 6.04747 1.74954 5.94855C1.77473 5.84962 1.74954 5.86611 1.86709 5.89908C1.81671 5.70947 1.98465 5.66001 1.92587 5.53635C2.04342 5.53635 2.03502 5.36322 2.04342 5.33849C2.05182 5.31376 2.18616 5.16537 2.15258 5.00049C2.15258 5.00049 2.15258 5.00049 2.22815 5.00049C2.30372 5.00049 2.29532 4.84386 2.22815 4.71195C2.3373 4.83561 2.22815 4.56356 2.38768 4.56356C2.43023 4.34675 2.52527 4.14317 2.66477 3.97C2.66477 3.97 2.62279 3.97 2.61439 3.97C2.606 3.97 2.61439 3.87107 2.65637 3.82985C2.69836 3.78863 2.65637 3.82985 2.65637 3.8958C2.72355 3.65673 2.72355 3.45063 2.89988 3.35995C2.89988 3.10438 3.26093 2.8076 3.3365 2.53555C3.39528 2.53555 3.44566 2.37067 3.55481 2.46135C3.54576 2.44195 3.54107 2.42086 3.54107 2.39952C3.54107 2.37818 3.54576 2.3571 3.55481 2.3377C4.15097 1.95847 4.5876 1.41437 5.28452 1.33193C5.28452 1.33193 5.28452 1.29071 5.28452 1.25774C5.74633 1.13408 6.19135 1.03515 6.60278 0.919735C6.5524 1.00217 6.72034 0.919735 6.77072 0.919735M35.0085 0.647685C35.0505 0.647685 35.1429 0.647686 35.1261 0.565246C35.1093 0.482807 34.9917 0.565245 35.0085 0.647685ZM34.6139 0.565246C34.5499 0.555754 34.4848 0.555754 34.4208 0.565246C34.4208 0.565246 34.6307 0.631198 34.6139 0.565246Z" fill="#1D1D1B"/>
<path fill-rule="evenodd" clip-rule="evenodd" d="M13.9245 13.467C13.597 12.824 13.3703 12.0985 13.0093 11.4967C12.8665 11.2659 12.665 11.0598 12.5139 10.829C12.3379 10.6008 12.178 10.3612 12.0353 10.1117C11.8002 9.6006 11.6826 9.08123 11.4475 8.61133C11.2964 8.20738 11.1452 7.52313 10.717 7.40771C10.7758 7.33352 10.5911 7.26756 10.5491 7.24283C10.2482 7.17271 9.93473 7.17271 9.63384 7.24283C9.46701 7.37339 9.32245 7.52923 9.20561 7.70449C9.15523 7.77869 9.20561 7.87762 9.13844 7.98479C9.07126 8.09196 9.00409 8.16615 8.99569 8.24035C8.98067 8.47095 8.98067 8.70225 8.99569 8.93284C8.99569 9.75724 8.99569 10.5074 8.99569 11.3153C8.90333 13.096 9.10485 15.1158 9.13844 16.9624C9.13844 18.1413 9.07966 19.3532 9.20561 20.5238C9.20561 20.9195 9.20561 21.3482 9.20561 21.612C9.20561 21.8758 9.39873 21.8841 9.4659 22.049C9.63384 22.049 9.70941 22.049 9.75139 22.2386C9.92772 22.1726 10.0117 22.387 10.146 22.2386V22.354C10.2978 22.2612 10.4658 22.1969 10.6414 22.1644C10.6839 21.8227 10.7484 21.484 10.8346 21.1504C10.8346 20.969 10.8346 20.7876 10.8346 20.5898C10.8346 20.3919 10.9689 20.1116 10.9941 19.8726C11.0193 19.6335 10.9941 19.2543 10.9941 18.9492C10.9941 18.6442 11.0781 18.2485 11.0948 17.8858C11.1116 17.523 11.1872 16.946 11.1872 16.4761C11.1872 16.0062 11.0865 15.6517 11.0697 15.1818C11.0697 14.1183 11.0697 13.3021 11.0193 12.3788C11.5101 13.0484 11.9056 13.7806 12.1948 14.5552C12.5727 15.2807 13.0345 15.9732 13.4459 16.6822C14.084 17.7456 14.655 18.8338 15.2344 19.922C15.4703 20.4447 15.7512 20.9467 16.074 21.4224C16.2756 21.4224 16.3847 21.5791 16.5275 21.6368C16.6702 21.6945 16.687 21.5873 16.687 21.7027C16.8213 21.6038 16.8633 21.6368 17.0648 21.6615C17.2622 21.5773 17.4391 21.453 17.5839 21.2966C17.7286 21.1403 17.8379 20.9556 17.9045 20.7547C17.9263 20.4996 17.9263 20.2431 17.9045 19.988C17.9045 19.7489 17.9633 19.5098 17.9801 19.2708C18.0388 18.2815 17.9801 17.3829 17.9801 16.3854C17.9801 15.8495 18.1648 15.3137 18.2152 14.7366C18.2656 14.1595 18.2152 13.5412 18.2656 12.9312C18.3159 11.9172 18.4503 10.8784 18.4755 9.85616C18.4755 9.3945 18.4251 8.93284 18.4335 8.47118C18.4419 8.00952 18.5342 7.56435 18.551 7.16864C18.551 6.93781 18.551 6.71522 18.551 6.50088C18.5766 6.42604 18.5935 6.34861 18.6014 6.27005C18.6014 6.21234 18.5175 6.09692 18.4839 5.97326C18.3915 5.61053 18.274 5.47038 17.9885 5.37146C17.745 5.37146 17.5351 5.23131 17.4259 5.25604C17.3167 5.28077 17.258 5.43741 17.09 5.41267C17.0108 5.52621 16.9077 5.62178 16.7878 5.69297C16.7878 5.86609 16.645 5.96502 16.603 6.10517C16.5427 6.37572 16.5257 6.65386 16.5526 6.92956C16.5526 7.30054 16.4351 7.67976 16.4099 8.06723C16.3679 8.89162 16.4099 9.66655 16.4099 10.425C16.3259 11.3895 16.1748 12.4613 16.1496 13.2444C16.1496 13.5495 16.1496 13.8545 16.1496 14.1513C16.0097 15.0467 15.9256 15.9497 15.8977 16.8553C15.2512 15.6599 14.5039 14.6047 13.8909 13.4093" fill="white"/>
<path fill-rule="evenodd" clip-rule="evenodd" d="M62.3228 7.06972C62.1884 7.06972 62.1464 7.24285 61.9533 7.15216C61.9533 7.27582 62.0121 7.26758 61.9533 7.39124C61.7098 7.5149 61.7602 7.66329 61.651 7.91885C61.651 8.00953 61.5587 8.06724 61.5335 8.13319C61.4864 8.41671 61.4611 8.70331 61.4579 8.99056C61.4579 9.25437 61.3907 9.5594 61.3823 9.81496C61.3404 10.9526 61.2312 11.9007 61.2396 12.8405C61.2396 14.2337 61.0969 15.7341 61.0297 17.1273C61.0297 18.0507 61.0885 19.1801 61.0801 19.8396C61.0801 20.021 60.9961 20.1858 61.0045 20.3672C60.9977 20.6612 61.0881 20.9494 61.2622 21.1887C61.4363 21.428 61.6847 21.6055 61.9701 21.6945C62.207 21.6641 62.4311 21.5714 62.6188 21.4263C62.8065 21.2812 62.9508 21.089 63.0365 20.8701C63.0365 20.359 63.0365 19.9468 63.0365 19.3285C63.0365 18.7102 63.0365 17.7292 63.0365 17.1191C63.0869 16.2123 63.1204 15.0169 63.1792 14.0936C63.238 13.0383 63.1792 11.9996 63.2464 11.0598C63.2464 10.6146 63.2464 10.1694 63.2464 9.78198C63.2464 9.71603 63.2968 9.60886 63.2968 9.54291C63.2968 9.47696 63.2296 9.36978 63.2212 9.2791C63.2876 8.78453 63.3045 8.28475 63.2716 7.78695C63.2716 7.70451 63.1456 7.67153 63.1037 7.5726C63.0617 7.47368 63.1036 7.31704 63.0113 7.20163C62.9189 7.08621 62.793 7.33353 62.7258 7.3088C62.6586 7.28407 62.4655 6.86362 62.3228 7.06972Z" fill="white"/>
<path fill-rule="evenodd" clip-rule="evenodd" d="M60.2315 19.8561C60.0552 19.6912 60.03 19.4851 59.8956 19.2955C59.5747 19.2267 59.2425 19.2267 58.9216 19.2955C58.8278 19.4126 58.7078 19.5069 58.571 19.5712C58.4341 19.6355 58.2841 19.6681 58.1324 19.6665C57.956 19.5511 57.7713 19.4934 57.5782 19.3615C57.3515 17.9765 57.8972 16.4349 57.7965 15.0829C57.7533 14.8102 57.7365 14.5342 57.7461 14.2585C57.8735 13.6255 57.7439 12.9688 57.3851 12.4283C57.1843 12.0835 56.9227 11.7765 56.6126 11.5215C56.0167 11.1117 55.3277 10.8513 54.6058 10.763C53.714 10.6762 52.8153 10.8362 52.0112 11.2247C51.9357 11.4967 51.6838 11.5957 51.5662 11.8265C51.6793 12.0641 51.7665 12.3128 51.8265 12.5684C51.9951 12.6988 52.1749 12.8147 52.3639 12.9147C52.5486 12.9559 52.5906 12.857 52.7249 12.9147C53.3094 12.6117 53.977 12.4991 54.631 12.5932C55.0231 12.7576 55.3752 13.0021 55.6637 13.3104C55.8604 14.0749 55.9173 14.8677 55.8317 15.6517C54.7183 15.6269 53.6243 15.9408 52.6997 16.5503C52.3749 16.8328 52.1169 17.1817 51.944 17.5725C51.6376 18.0594 51.4296 18.5995 51.3311 19.1636C51.2439 19.869 51.3912 20.5833 51.7509 21.1999C51.9189 21.3895 52.1456 21.4719 52.2715 21.6615C53.1112 21.8429 53.7073 22.3623 54.6562 22.2468C55.0861 22.1365 55.487 21.9369 55.8317 21.6615C55.9925 21.5929 56.1495 21.5159 56.3019 21.4307C56.4446 21.3235 56.537 21.1669 56.7301 21.1339C56.9232 21.1009 57.2339 21.2741 57.4354 21.34C58.124 21.5626 58.9888 21.678 59.3583 21.1751C59.5241 21.1301 59.6786 21.0514 59.8117 20.9443C59.9965 20.7827 60.133 20.5746 60.2063 20.3425C60.2063 20.1776 60.1559 20.0045 60.2063 19.8396M55.5798 19.5593C55.4706 19.6747 55.2943 19.6253 55.1516 19.6995C55.0088 19.7737 55.0088 19.8561 54.9164 19.9303C54.8241 20.0045 54.4714 20.2023 54.2783 20.3425C53.8895 20.2898 53.5186 20.1487 53.1951 19.9303C53.1161 19.6891 53.1161 19.4296 53.1951 19.1883C53.3046 18.898 53.4483 18.6214 53.6234 18.3639C53.8398 18.1058 54.1336 17.9212 54.463 17.8363C54.8264 17.6545 55.231 17.5666 55.6386 17.5808C55.5287 18.246 55.5146 18.9232 55.5966 19.5923" fill="white"/>
<path fill-rule="evenodd" clip-rule="evenodd" d="M39.1398 12.7003C38.9718 12.7003 38.8963 12.519 38.7619 12.453C38.5772 12.519 38.4345 12.3459 38.2665 12.3376C38.0181 12.4201 37.7854 12.5427 37.578 12.7003C37.5807 12.7696 37.5621 12.8381 37.5246 12.8969C37.4872 12.9557 37.4327 13.0021 37.3681 13.0301C37.381 13.1693 37.3389 13.308 37.2505 13.4176C37.3345 13.5 37.3681 13.7885 37.2505 13.8627C37.3261 13.8627 37.3261 13.8627 37.3177 13.9534C37.0574 15.4044 37.175 17.1933 36.9902 18.6772C37.0322 18.7349 37.0574 18.6772 37.0826 18.7679C37.18 19.1144 37.2308 19.4719 37.2337 19.8314C37.2337 20.3837 36.9902 20.9196 37.2337 21.2905C37.4353 21.2905 37.3765 21.5873 37.494 21.7027C37.5948 21.7027 37.7627 21.6615 37.7963 21.8182C37.8635 21.8182 37.9055 21.645 37.9894 21.7027C38.0062 21.7788 38.0062 21.8575 37.9894 21.9336C38.065 21.9336 38.065 21.8676 38.149 21.9336C38.2329 21.9995 38.0818 21.7687 38.1993 21.7275C38.3169 21.6862 38.4261 21.5214 38.5772 21.4966C39.3749 20.1199 38.7535 18.0754 39.0474 16.2452C39.7275 16.2452 39.8871 15.6105 40.1306 15.0664C40.3979 14.8081 40.7544 14.6579 41.1293 14.6457C41.5041 14.6335 41.87 14.7601 42.1542 15.0004C42.2227 15.122 42.3013 15.2378 42.3893 15.3466C42.4732 15.7671 42.6663 16.2205 42.7419 16.7564C42.8679 17.5808 42.8343 18.5453 42.935 19.279C42.9314 19.5188 42.9146 19.7582 42.8847 19.9962C42.9051 20.2478 42.9795 20.4922 43.103 20.7135C43.2047 20.8886 43.3573 21.03 43.5413 21.1195C43.7252 21.2091 43.9322 21.2428 44.1358 21.2163C44.3457 21.0267 44.7235 20.9938 44.7487 20.6145C44.7487 20.5321 44.8747 20.6145 44.8915 20.5486C44.9082 20.438 44.9393 20.33 44.9838 20.2271C44.9838 19.7159 44.8411 19.3202 44.8159 18.7432C44.8159 18.3392 44.8159 17.9188 44.8159 17.4983C44.8159 16.913 44.6144 16.0968 44.6563 15.8495C44.8998 15.6434 45.0342 15.3796 45.3113 15.1983C45.8875 14.9417 46.5335 14.878 47.1501 15.0169C47.3696 15.1043 47.5758 15.2208 47.7631 15.3631C47.8599 15.5363 47.9306 15.7224 47.973 15.9155C48.0918 16.7762 48.1507 17.6438 48.1493 18.5123C48.1493 19.4934 47.8974 20.6063 48.3089 21.2163C48.4796 21.3091 48.6449 21.4109 48.8043 21.5214C48.9446 21.485 49.0922 21.485 49.2325 21.5214C49.2325 21.3977 49.4592 21.3977 49.56 21.3812C49.6943 21.2163 49.8874 21.1257 49.9798 20.9443C50.1167 20.4872 50.1567 20.0074 50.0974 19.5346C50.1276 17.9392 50.0378 16.3437 49.8287 14.7613C49.7615 14.6542 49.6523 14.5882 49.6607 14.4151C49.6691 14.242 49.4592 14.2914 49.4508 14.1348C48.6945 13.4194 47.701 12.9957 46.6523 12.9412C45.6037 12.8867 44.5701 13.2051 43.7411 13.838C43.1359 13.2345 42.3561 12.8286 41.5076 12.6756C40.736 12.5858 39.956 12.7512 39.2909 13.1455C39.2052 12.9991 39.1429 12.8406 39.1062 12.6756" fill="white"/>
<path fill-rule="evenodd" clip-rule="evenodd" d="M30.3235 13.0548C30.332 13.076 30.332 13.0996 30.3235 13.1208C30.1052 13.1208 30.0128 13.2197 29.9037 13.1702C29.741 13.3747 29.5924 13.5895 29.4587 13.8133C29.4724 13.8747 29.4704 13.9385 29.4528 13.9989C29.4352 14.0593 29.4026 14.1145 29.3579 14.1595C29.4362 14.5558 29.4616 14.9604 29.4335 15.3631C29.5222 16.0772 29.5699 16.7955 29.5762 17.5148C29.5962 17.9608 29.6666 18.4032 29.7861 18.8338C29.7796 19.3685 29.7431 19.9024 29.677 20.4332C29.677 20.4332 29.677 20.3919 29.6266 20.3837C29.5762 20.3755 29.5762 20.5568 29.6266 20.6393C29.677 20.7217 29.7274 20.5816 29.7442 20.6393C29.8281 20.8948 30.0045 20.9196 30.0548 21.1916C30.1388 21.1916 30.1556 21.1257 30.2396 21.1257C30.3571 21.34 30.567 21.2163 30.735 21.3565C30.8357 21.3565 30.8525 21.2328 30.9449 21.1916C31.0372 21.1504 30.9449 21.2823 31.0372 21.2658C31.1548 21.0515 31.1968 20.7629 31.3731 20.6145C31.566 19.3902 31.6139 18.1481 31.5158 16.913C31.7006 16.6162 31.9357 16.3936 32.0784 16.0886C32.5402 15.7836 32.8173 15.3961 33.3547 15.2642C33.6486 15.19 34.0684 15.2642 34.3623 15.1488C34.9669 15.3137 35.8317 15.2312 35.9912 14.5717C36.1172 14.5717 36.1004 14.3986 36.2012 14.3656C36.139 14.2952 36.0906 14.2142 36.0584 14.1265C36.134 14.0523 36.0584 13.9534 36.0584 13.8298C35.9807 13.7706 35.9223 13.6903 35.8905 13.5989C35.3783 13.1455 34.3287 13.2032 33.489 13.3186C32.9263 13.3542 32.3785 13.5118 31.8853 13.7803C31.6922 13.904 31.5326 14.1018 31.3227 14.1265C31.4151 13.8545 31.1884 13.5742 31.138 13.3022C30.8525 13.3022 30.6342 13.0796 30.2983 13.0548" fill="white"/>
<path fill-rule="evenodd" clip-rule="evenodd" d="M27.8043 16.1051C27.5805 15.2831 27.05 14.5739 26.3181 14.1183C25.9361 13.8288 25.4951 13.6236 25.025 13.5165C24.342 13.4016 23.6414 13.4411 22.9762 13.6319C22.2423 13.7184 21.5474 14.0039 20.9695 14.4563C20.3466 14.9582 19.9098 15.6479 19.7268 16.4183C19.5225 17.5965 19.7203 18.8079 20.2893 19.8643C20.3481 19.9468 20.4405 20.0127 20.4992 20.0952C20.7679 20.4744 21.0198 20.9195 21.3389 21.274C21.8091 21.5131 22.1786 21.8264 22.6404 22.0984C22.7889 22.0951 22.9351 22.1353 23.0602 22.2138C23.2114 22.2138 23.2533 22.0819 23.4129 22.1644C23.796 21.9979 24.1996 21.8815 24.6136 21.8181C25.0804 21.7476 25.5389 21.6316 25.9822 21.4719C26.1313 21.3881 26.2744 21.2945 26.4105 21.1916C27.0176 20.7478 27.4624 20.1232 27.6784 19.4109C27.8534 18.9862 27.9801 18.5439 28.0562 18.0919C28.1044 17.4145 28.0334 16.734 27.8463 16.0803M26.0326 17.8116C25.9742 18.4201 25.773 19.007 25.4449 19.5263C24.935 19.8304 24.3601 20.0139 23.7655 20.0622C23.7004 20.0858 23.6425 20.1256 23.5976 20.1776C23.2869 20.2435 22.8755 19.9715 22.5816 19.7324C22.2029 19.37 21.9428 18.9051 21.8343 18.3969C21.6156 17.8756 21.5403 17.307 21.616 16.7481L21.8091 16.6327C22.1198 15.5857 23.4884 15.4373 24.5884 15.3796C24.9998 15.6764 25.6128 15.9484 25.8563 16.4183C26.0181 16.8789 26.0838 17.3668 26.0494 17.8528" fill="white"/>
</svg>
