<svg width="70" height="42" viewBox="0 0 70 42" fill="none" xmlns="http://www.w3.org/2000/svg">
<g clip-path="url(#clip0_2409_2008)">
<path d="M64.6245 35.4146C64.7177 34.7725 64.5934 34.0387 64.873 33.4271C65.2148 32.6627 66.0536 32.2346 66.4885 31.5619C66.9545 30.8587 67.0787 29.7273 66.5506 29.0546C67.7311 27.9844 68.8495 26.7308 69.1913 25.1713C69.3777 24.2846 69.1602 23.5202 68.8806 22.664C68.6942 22.1442 68.7563 21.9913 69.0981 21.5938C69.3777 21.2575 69.5641 20.7988 69.4087 20.3707C69.1291 19.5757 68.135 19.3311 67.3583 19.3311C66.7991 19.3311 66.2399 19.4534 65.6808 19.5452C64.9662 19.6369 64.2517 19.7592 63.5372 19.8509C60.8655 20.2484 58.1937 20.6459 55.522 21.0434C52.5086 21.5021 49.4641 21.9913 46.4506 22.5111C46.2332 22.5417 46.14 22.6946 46.1089 22.8475C45.8914 22.6946 45.674 22.5723 45.4565 22.45C44.7109 22.0219 43.8721 23.0615 44.6177 23.4896C47.4137 25.1713 49.899 27.3117 51.9494 29.819C52.9746 31.1033 53.9066 32.4792 54.6832 33.9469C55.4288 35.2923 56.1744 36.5766 57.2617 37.7079C57.9141 38.3806 59.2811 39.4202 58.784 40.4904C58.5665 40.9796 59.0947 41.4383 59.5607 41.2854C62.1702 40.4293 64.1896 38.1054 64.6245 35.4146Z" fill="#662D91"/>
<path d="M28.1216 15.0189C26.7857 15.1718 25.4498 15.3247 24.114 15.5082C24.2382 15.3247 24.2693 15.0495 24.0518 14.8966C22.2811 13.6124 20.5103 12.2976 18.8327 10.9216C17.2794 9.63738 15.8192 8.23083 14.3902 6.82429C11.7495 4.22524 8.92248 1.6262 5.16344 0.831196C4.88384 0.770042 4.63531 0.984081 4.51105 1.19812C3.79652 2.51293 5.16344 3.52197 5.47411 4.71448C5.72264 5.66236 4.35571 5.78467 3.73438 6.05987C3.05092 6.36564 2.33639 6.9466 2.27426 7.7416C2.21213 8.16968 2.39853 8.5366 2.67812 8.84237C2.80239 8.99526 2.92666 9.05641 2.86452 9.23987C2.80239 9.42334 2.55386 9.6068 2.42959 9.72911C1.80826 10.2489 1.218 10.8299 0.845204 11.5637C0.503473 12.2058 0.410274 13.0008 0.752005 13.6735C1.218 14.5297 2.49173 14.7437 2.61599 15.7834C2.74026 16.7618 2.18106 17.7097 1.74613 18.5659C1.28013 19.5138 0.845204 20.5228 1.06267 21.6236C1.1248 22.0211 1.4976 22.2351 1.8704 22.0822C8.48755 19.8195 15.3532 18.1684 22.2811 17.0676C24.2693 16.7618 26.2576 16.4866 28.2769 16.2726C29.0846 16.2114 28.9293 14.9578 28.1216 15.0189Z" fill="#662D91"/>
<path d="M50.6758 25.049C51.3904 21.9607 50.4273 18.6584 48.5944 16.1205C46.4508 13.124 43.1888 11.0448 39.8958 9.48533C36.9134 8.07879 33.6203 7.10032 30.2962 7.06974C27.1275 7.03917 24.0208 7.9259 21.5044 9.91341C19.1744 11.7786 17.4037 14.5 17.2483 17.4965C17.093 20.9211 18.957 24.1011 21.1006 26.6696C23.3063 29.3298 26.1023 31.5314 29.3642 32.8462C32.4088 34.0387 35.7018 34.3444 38.8706 33.5189C39.523 33.3354 40.2064 33.1214 40.8278 32.8462C41.9151 32.6015 42.9713 32.2958 43.9965 31.8983C47.1964 30.6752 49.8992 28.4431 50.6758 25.049Z" fill="#7F3F98"/>
<path d="M18.833 21.4715C18.9883 18.475 20.7591 15.723 23.0891 13.8884C25.5744 11.9009 28.681 11.0142 31.8809 11.0448C35.205 11.0753 38.498 12.0538 41.4804 13.4603C44.7734 15.0198 48.0354 17.1296 50.179 20.0955C50.3654 20.3707 50.5518 20.6459 50.7382 20.9211C50.3965 19.2088 49.6509 17.5577 48.6257 16.1511C46.4821 13.1546 43.2201 11.0753 39.9271 9.5159C36.9447 8.10936 33.6517 7.1309 30.3275 7.10032C27.1588 7.06974 24.0521 7.95648 21.5357 9.94398C19.2057 11.8092 17.435 14.5305 17.2796 17.5271C17.1864 19.7286 17.901 21.8079 19.0194 23.7036C18.864 22.9698 18.8019 22.2359 18.833 21.4715Z" fill="#A358C6"/>
<path d="M50.6758 25.049C51.2661 22.5417 50.7379 19.8815 49.5263 17.6188C49.7438 18.8725 49.7127 20.1873 49.4331 21.4409C48.6565 24.835 45.9537 27.0671 42.7538 28.2902C41.7287 28.6877 40.6413 28.9935 39.5851 29.2381C38.9327 29.5133 38.2803 29.7273 37.6279 29.9108C34.4591 30.7363 31.1661 30.4306 28.1216 29.2381C24.8906 27.9538 22.0636 25.7217 19.8579 23.0615C18.9259 21.9302 18.056 20.7071 17.3726 19.3617C17.8075 22.0525 19.3608 24.5598 21.1005 26.6696C23.3062 29.3298 26.1022 31.5313 29.3642 32.8462C32.4087 34.0387 35.7018 34.3444 38.8705 33.5189C39.5229 33.3354 40.2064 33.1214 40.8277 32.8462C41.9151 32.6015 42.9713 32.2958 43.9965 31.8983C47.1964 30.6752 49.8991 28.4431 50.6758 25.049Z" fill="#662D91"/>
<path d="M35.4222 14.2859C33.3718 13.3075 30.7933 13.4909 28.6497 14.0107C27.4071 14.3165 26.2887 14.7446 25.2013 15.4173C24.6732 15.7536 24.2383 16.1817 23.8034 16.6098C23.3374 17.0684 23.0578 17.6188 22.7782 18.1998C22.3122 19.0865 23.5859 20.0038 24.3315 19.3923C24.7353 19.0559 25.1703 18.8113 25.5741 18.475C25.978 18.1386 26.3819 17.8328 26.8168 17.4965C27.5935 16.9155 28.4633 16.3346 29.3642 15.9065C31.2904 14.9892 33.3097 14.8975 35.4222 14.8669C35.6707 14.8669 35.6707 14.4082 35.4222 14.2859Z" fill="#A358C6"/>
<path d="M33.7757 19.3006C33.4651 19.0559 33.1233 18.9948 32.7505 18.8113C32.2845 18.5973 31.9428 18.4138 31.3836 18.3527C30.3895 18.2304 29.4264 18.2304 28.4634 18.5055C27.5624 18.7502 26.7236 19.0865 25.947 19.5452C25.0771 20.0344 24.5179 20.7377 24.0209 21.5633C23.8345 21.869 23.7723 22.2359 24.0209 22.5417C24.2073 22.8169 24.6733 22.9698 24.9839 22.8169C25.6674 22.4806 26.413 22.2054 27.0964 21.869C27.811 21.5021 28.5255 21.1963 29.3022 20.9517C29.9545 20.7682 30.7312 20.4931 31.4768 20.3707C31.8807 20.3096 32.1913 20.1873 32.5952 20.065C32.968 19.9427 33.3408 19.9732 33.7136 19.8815C33.9621 19.7898 33.9621 19.4534 33.7757 19.3006Z" fill="#A358C6"/>
<path d="M62.854 24.0094C62.7608 23.9482 62.6366 23.8565 62.5123 23.7954C61.6114 22.6334 59.4367 22.9698 58.163 23.0615C56.6718 23.1532 55.3049 23.5813 53.9069 24.0706C53.4098 24.254 53.1302 24.835 53.2545 25.3548C53.4098 25.9052 53.8758 26.1804 54.435 26.1498C55.8019 26.1192 57.1689 26.1498 58.5358 26.0581C59.7474 25.9969 61.5182 26.2415 62.4502 25.3242C62.5434 25.2936 62.6055 25.2631 62.6987 25.2019C63.1336 25.0184 63.3511 24.3457 62.854 24.0094Z" fill="#7F3F98"/>
<path d="M63.1647 28.7183C62.7298 27.8315 61.4871 27.6481 60.6173 27.5563C59.6542 27.4646 58.6911 27.5258 57.7281 27.5563C57.231 27.5563 56.8271 28.1067 56.8271 28.5654C56.8271 29.1158 57.1999 29.4521 57.7281 29.5744C58.5979 29.7884 59.4678 30.0025 60.3687 30.0942C61.1765 30.1859 62.4812 30.2777 63.0404 29.5133C63.1958 29.2992 63.289 28.9934 63.1647 28.7183Z" fill="#7F3F98"/>
<path d="M13.4581 10.6778C13.3339 10.3109 12.9611 9.97456 12.7436 9.66879C12.433 9.24071 11.8738 8.93494 11.4078 8.69033C10.5068 8.23167 9.57484 7.9259 8.61178 7.62013C8.11471 7.46725 7.58658 7.58955 7.30698 8.04821C7.05845 8.47629 7.12059 9.1184 7.55552 9.3936C8.45644 9.94398 9.35737 10.4944 10.3204 10.9224C10.7864 11.1365 11.3456 11.3199 11.8738 11.3199C12.3087 11.3199 12.8057 11.3811 13.2096 11.2282C13.4581 11.1671 13.5513 10.9224 13.4581 10.6778Z" fill="#7F3F98"/>
<path d="M12.6507 13.4298C12.6507 12.8794 12.1226 12.6042 11.6877 12.3596C11.1595 12.0844 10.5693 11.7786 9.94793 11.6563C8.7674 11.4423 7.49368 11.5034 6.28209 11.5646C5.59863 11.5951 5.10156 12.2678 5.10156 12.8794C5.10156 13.4909 5.56756 14.1942 6.28209 14.2248C7.43155 14.2553 8.61207 14.4388 9.76153 14.4388C10.3518 14.4388 10.9421 14.3471 11.5323 14.2553C11.9983 14.1636 12.6507 14.0413 12.6507 13.4298Z" fill="#7F3F98"/>
</g>
<defs>
<clipPath id="clip0_2409_2008">
<rect width="68.9365" height="40.5145" fill="white" transform="translate(0.534668 0.832035)"/>
</clipPath>
</defs>
</svg>
