<svg width="78" height="68" viewBox="0 0 78 68" fill="none" xmlns="http://www.w3.org/2000/svg">
    <path d="M18.9745 43.384H20.6845L23.0245 49H21.2605L18.9745 43.384ZM20.6845 43.384H18.9745L21.2965 37.732H23.0605L20.6845 43.384ZM17.2465 37.732H18.8665V49H17.2465V37.732ZM27.5747 46.12V42.034C27.5747 41.806 27.5387 41.662 27.4667 41.602C27.4067 41.53 27.2627 41.494 27.0347 41.494H26.4947V40.216H27.5027C28.0907 40.216 28.5167 40.354 28.7807 40.63C29.0447 40.894 29.1767 41.29 29.1767 41.818V46.12H27.5747ZM27.5747 47.182V45.364H29.1767V47.416C29.1767 47.932 29.0447 48.328 28.7807 48.604C28.5167 48.868 28.0907 49 27.5027 49H26.4047V47.722H27.0347C27.2627 47.722 27.4067 47.686 27.4667 47.614C27.5387 47.542 27.5747 47.398 27.5747 47.182ZM25.5227 42.034V46.138H23.9207V41.818C23.9207 41.29 24.0527 40.894 24.3167 40.63C24.5807 40.354 25.0007 40.216 25.5767 40.216H26.6027V41.494H26.0627C25.8467 41.494 25.7027 41.53 25.6307 41.602C25.5587 41.662 25.5227 41.806 25.5227 42.034ZM25.5227 45.256V47.182C25.5227 47.398 25.5587 47.542 25.6307 47.614C25.7027 47.686 25.8467 47.722 26.0627 47.722H26.5487V49H25.5767C25.0007 49 24.5807 48.868 24.3167 48.604C24.0527 48.328 23.9207 47.932 23.9207 47.416V45.256H25.5227ZM34.0748 40.198V41.62H33.4268C32.6708 41.62 32.2928 42.058 32.2928 42.934V43.312H32.2208V41.782C32.2208 41.53 32.2748 41.284 32.3828 41.044C32.5028 40.792 32.6708 40.588 32.8868 40.432C33.1148 40.276 33.3908 40.198 33.7148 40.198H34.0748ZM32.2928 49H30.6728V40.216H32.2928V41.854V49ZM37.8959 47.236V45.778C37.8959 45.562 37.8599 45.424 37.7879 45.364C37.7279 45.292 37.5839 45.256 37.3559 45.256H36.4379C35.8499 45.256 35.4239 45.124 35.1599 44.86C34.8959 44.584 34.7639 44.188 34.7639 43.672V41.818C34.7639 41.29 34.8959 40.894 35.1599 40.63C35.4359 40.354 35.8619 40.216 36.4379 40.216H37.7519C38.3399 40.216 38.7659 40.354 39.0299 40.63C39.3059 40.894 39.4439 41.29 39.4439 41.818V42.664H37.8599V41.98C37.8599 41.764 37.8239 41.626 37.7519 41.566C37.6919 41.494 37.5479 41.458 37.3199 41.458H36.8879C36.6719 41.458 36.5279 41.494 36.4559 41.566C36.3839 41.626 36.3479 41.764 36.3479 41.98V43.492C36.3479 43.708 36.3839 43.852 36.4559 43.924C36.5279 43.984 36.6719 44.014 36.8879 44.014H37.8239C38.3999 44.014 38.8199 44.152 39.0839 44.428C39.3479 44.692 39.4799 45.088 39.4799 45.616V47.416C39.4799 47.932 39.3419 48.328 39.0659 48.604C38.8019 48.868 38.3819 49 37.8059 49H36.4739C35.8979 49 35.4719 48.868 35.1959 48.604C34.9319 48.328 34.7999 47.932 34.7999 47.416V46.552H36.4019V47.236C36.4019 47.44 36.4379 47.578 36.5099 47.65C36.5819 47.722 36.7199 47.758 36.9239 47.758H37.3559C37.5839 47.758 37.7279 47.722 37.7879 47.65C37.8599 47.578 37.8959 47.44 37.8959 47.236ZM44.2522 44.302H45.8722V47.416C45.8722 47.932 45.7402 48.328 45.4762 48.604C45.2122 48.868 44.8042 49 44.2522 49H43.6042C43.2442 49 42.9562 48.904 42.7402 48.712C42.5242 48.52 42.4162 48.208 42.4162 47.776V46.642H42.4882V47.056C42.4882 47.296 42.5362 47.464 42.6322 47.56C42.7282 47.644 42.8782 47.686 43.0822 47.686H43.7122C43.9282 47.686 44.0722 47.65 44.1442 47.578C44.2162 47.506 44.2522 47.368 44.2522 47.164V44.302ZM45.8722 44.896H44.2522V42.034C44.2522 41.818 44.2162 41.68 44.1442 41.62C44.0722 41.548 43.9282 41.512 43.7122 41.512H43.0822C42.8782 41.512 42.7282 41.56 42.6322 41.656C42.5362 41.752 42.4882 41.914 42.4882 42.142V42.718H42.4162V41.422C42.4162 40.99 42.5242 40.678 42.7402 40.486C42.9562 40.294 43.2442 40.198 43.6042 40.198H44.2522C44.8042 40.198 45.2122 40.336 45.4762 40.612C45.7402 40.876 45.8722 41.272 45.8722 41.8V44.896ZM40.8682 36.958H42.4882V47.794V47.884V49H40.8682V36.958ZM51.2965 43.744L51.7285 44.86L48.9565 45.976L47.3365 45.364L51.2965 43.744ZM47.3365 45.364L48.9565 45.976V47.164C48.9565 47.368 48.9925 47.506 49.0645 47.578C49.1365 47.65 49.2805 47.686 49.4965 47.686H50.1265C50.3185 47.686 50.4625 47.65 50.5585 47.578C50.6545 47.494 50.7085 47.35 50.7205 47.146V42.07C50.6845 41.71 50.4865 41.53 50.1265 41.53H49.4965C49.2805 41.53 49.1365 41.566 49.0645 41.638C48.9925 41.698 48.9565 41.836 48.9565 42.052V43.402H47.3365V41.818C47.3365 41.29 47.4685 40.894 47.7325 40.63C47.9965 40.354 48.4045 40.216 48.9565 40.216H50.2345C50.5465 40.216 50.8105 40.294 51.0265 40.45C51.2545 40.594 51.4045 40.768 51.4765 40.972C51.5485 40.768 51.6925 40.594 51.9085 40.45C52.1245 40.294 52.4065 40.216 52.7545 40.216H54.1585C54.7465 40.216 55.1725 40.354 55.4365 40.63C55.7125 40.894 55.8505 41.29 55.8505 41.818V45.04H54.2305V42.034C54.2305 41.818 54.1945 41.68 54.1225 41.62C54.0625 41.548 53.9245 41.512 53.7085 41.512H52.8625C52.6465 41.512 52.5025 41.548 52.4305 41.62C52.3585 41.68 52.3225 41.818 52.3225 42.034V47.182C52.3225 47.386 52.3585 47.524 52.4305 47.596C52.5025 47.668 52.6465 47.704 52.8625 47.704H53.6545C53.8825 47.704 54.0265 47.668 54.0865 47.596C54.1585 47.524 54.1945 47.386 54.1945 47.182V46.462H55.7965V47.416C55.7965 47.932 55.6585 48.328 55.3825 48.604C55.1185 48.868 54.6985 49 54.1225 49H52.7365C52.4005 49 52.1245 48.922 51.9085 48.766C51.6925 48.61 51.5425 48.436 51.4585 48.244C51.3865 48.436 51.2425 48.61 51.0265 48.766C50.8105 48.922 50.5405 49 50.2165 49H48.9565C48.4045 49 47.9965 48.868 47.7325 48.604C47.4685 48.328 47.3365 47.932 47.3365 47.416V45.364ZM55.6525 43.906V45.13H51.2965V43.906H55.6525ZM58.994 49H57.374V36.958H58.994V49ZM59.282 44.41H60.938L62.954 49H61.226L59.282 44.41ZM60.938 44.41H59.282L61.226 40.216H62.954L60.938 44.41ZM13.0686 65.164V62.41C13.0686 62.194 13.0326 62.056 12.9606 61.996C12.9006 61.924 12.7626 61.888 12.5466 61.888H11.2146C10.6386 61.888 10.2186 61.75 9.95456 61.474C9.70256 61.198 9.57656 60.802 9.57656 60.286V57.316C9.57656 56.8 9.70856 56.41 9.97256 56.146C10.2486 55.87 10.6746 55.732 11.2506 55.732H13.0146C13.6026 55.732 14.0286 55.87 14.2926 56.146C14.5566 56.41 14.6886 56.8 14.6886 57.316V58.972H13.0506V57.568C13.0506 57.352 13.0146 57.214 12.9426 57.154C12.8826 57.082 12.7386 57.046 12.5106 57.046H11.7546C11.5386 57.046 11.3946 57.082 11.3226 57.154C11.2506 57.214 11.2146 57.352 11.2146 57.568V60.07C11.2146 60.274 11.2506 60.412 11.3226 60.484C11.3946 60.556 11.5386 60.592 11.7546 60.592H13.0686C13.6446 60.592 14.0646 60.73 14.3286 61.006C14.5926 61.27 14.7246 61.66 14.7246 62.176V65.416C14.7246 65.932 14.5866 66.328 14.3106 66.604C14.0466 66.868 13.6266 67 13.0506 67H11.2866C10.7106 67 10.2846 66.868 10.0086 66.604C9.74456 66.328 9.61256 65.932 9.61256 65.416V63.76H11.2506V65.164C11.2506 65.368 11.2866 65.506 11.3586 65.578C11.4306 65.65 11.5746 65.686 11.7906 65.686H12.5466C12.7626 65.686 12.9006 65.65 12.9606 65.578C13.0326 65.506 13.0686 65.368 13.0686 65.164ZM17.106 58.216L18.258 65.632L19.428 58.216H21.048L19.428 67H17.106L15.486 58.216H17.106ZM27.1569 59.818V65.416C27.1569 65.932 27.0249 66.328 26.7609 66.604C26.4969 66.868 26.0709 67 25.4829 67H23.5569C22.9809 67 22.5609 66.868 22.2969 66.604C22.0329 66.328 21.9009 65.932 21.9009 65.416V59.818C21.9009 59.29 22.0329 58.894 22.2969 58.63C22.5609 58.354 22.9809 58.216 23.5569 58.216H25.4829C26.0709 58.216 26.4969 58.354 26.7609 58.63C27.0249 58.894 27.1569 59.29 27.1569 59.818ZM25.5909 65.272V59.944C25.5909 59.716 25.5549 59.572 25.4829 59.512C25.4109 59.44 25.2669 59.404 25.0509 59.404H24.0069C23.7789 59.404 23.6289 59.44 23.5569 59.512C23.4849 59.572 23.4489 59.716 23.4489 59.944V65.272C23.4489 65.5 23.4849 65.65 23.5569 65.722C23.6289 65.782 23.7789 65.812 24.0069 65.812H25.0509C25.2669 65.812 25.4109 65.782 25.4829 65.722C25.5549 65.65 25.5909 65.5 25.5909 65.272ZM26.2389 57.856H27.1929L22.8189 67.36H21.8649L26.2389 57.856ZM33.7257 67H32.1057V60.052C32.1057 59.836 32.0697 59.698 31.9977 59.638C31.9257 59.566 31.7817 59.53 31.5657 59.53H30.9357C30.7317 59.53 30.5817 59.578 30.4857 59.674C30.3897 59.77 30.3417 59.932 30.3417 60.16V60.736H30.2697V59.44C30.2697 59.008 30.3777 58.696 30.5937 58.504C30.8097 58.312 31.0977 58.216 31.4577 58.216H32.1057C32.6577 58.216 33.0657 58.354 33.3297 58.63C33.5937 58.894 33.7257 59.29 33.7257 59.818V67ZM30.3417 67H28.7217V58.216H30.3417V59.314V59.422V67ZM37.1097 67H35.4717V60.052C35.4717 59.836 35.4357 59.698 35.3637 59.638C35.3037 59.566 35.1657 59.53 34.9497 59.53H34.3017C34.1097 59.53 33.9657 59.578 33.8697 59.674C33.7737 59.77 33.7257 59.932 33.7257 60.16V60.736H33.5817L33.5457 59.458C33.5337 59.026 33.6477 58.714 33.8877 58.522C34.1397 58.318 34.4577 58.216 34.8417 58.216H35.4717C36.0357 58.216 36.4497 58.354 36.7137 58.63C36.9777 58.894 37.1097 59.29 37.1097 59.818V67ZM43.6046 67H41.9846V60.052C41.9846 59.836 41.9486 59.698 41.8766 59.638C41.8046 59.566 41.6606 59.53 41.4446 59.53H40.8146C40.6106 59.53 40.4606 59.578 40.3646 59.674C40.2686 59.77 40.2206 59.932 40.2206 60.16V60.736H40.1486V59.44C40.1486 59.008 40.2566 58.696 40.4726 58.504C40.6886 58.312 40.9766 58.216 41.3366 58.216H41.9846C42.5366 58.216 42.9446 58.354 43.2086 58.63C43.4726 58.894 43.6046 59.29 43.6046 59.818V67ZM40.2206 67H38.6006V58.216H40.2206V59.314V59.422V67ZM46.9886 67H45.3506V60.052C45.3506 59.836 45.3146 59.698 45.2426 59.638C45.1826 59.566 45.0446 59.53 44.8286 59.53H44.1806C43.9886 59.53 43.8446 59.578 43.7486 59.674C43.6526 59.77 43.6046 59.932 43.6046 60.16V60.736H43.4606L43.4246 59.458C43.4126 59.026 43.5266 58.714 43.7666 58.522C44.0186 58.318 44.3366 58.216 44.7206 58.216H45.3506C45.9146 58.216 46.3286 58.354 46.5926 58.63C46.8566 58.894 46.9886 59.29 46.9886 59.818V67ZM50.0275 60.016V65.2C50.0275 65.404 50.0635 65.542 50.1355 65.614C50.2075 65.686 50.3515 65.722 50.5675 65.722H51.0175V67H50.1175C49.5415 67 49.1155 66.868 48.8395 66.604C48.5755 66.328 48.4435 65.932 48.4435 65.416V59.818C48.4435 59.29 48.5755 58.894 48.8395 58.63C49.1155 58.354 49.5415 58.216 50.1175 58.216H51.1075V59.494H50.5675C50.3515 59.494 50.2075 59.53 50.1355 59.602C50.0635 59.662 50.0275 59.8 50.0275 60.016ZM51.9715 62.878V60.016C51.9715 59.8 51.9355 59.662 51.8635 59.602C51.8035 59.53 51.6655 59.494 51.4495 59.494H50.8735V58.216H51.8815C52.4695 58.216 52.8955 58.354 53.1595 58.63C53.4355 58.894 53.5735 59.29 53.5735 59.818V62.878H51.9715ZM51.9355 65.182V64.462H53.5195V65.416C53.5195 65.932 53.3875 66.328 53.1235 66.604C52.8595 66.868 52.4335 67 51.8455 67H50.8735V65.722H51.3955C51.6235 65.722 51.7675 65.686 51.8275 65.614C51.8995 65.542 51.9355 65.398 51.9355 65.182ZM53.5735 61.924V63.112H49.0195V61.924H53.5735ZM59.9698 67H58.3498V60.052C58.3498 59.836 58.3138 59.698 58.2418 59.638C58.1698 59.566 58.0258 59.53 57.8098 59.53H57.1798C56.9758 59.53 56.8258 59.578 56.7298 59.674C56.6338 59.77 56.5858 59.932 56.5858 60.16V60.7H56.5138V59.44C56.5138 59.008 56.6218 58.696 56.8378 58.504C57.0538 58.312 57.3418 58.216 57.7018 58.216H58.3498C58.9018 58.216 59.3098 58.354 59.5738 58.63C59.8378 58.894 59.9698 59.29 59.9698 59.818V67ZM56.5858 67H54.9658V54.958H56.5858V67ZM63.052 62.914H61.432V59.818C61.432 59.29 61.564 58.894 61.828 58.63C62.092 58.354 62.5 58.216 63.052 58.216H63.7C64.06 58.216 64.348 58.312 64.564 58.504C64.78 58.696 64.888 59.008 64.888 59.44V60.646H64.816V60.16C64.816 59.932 64.768 59.77 64.672 59.674C64.576 59.578 64.426 59.53 64.222 59.53H63.592C63.376 59.53 63.232 59.566 63.16 59.638C63.088 59.698 63.052 59.836 63.052 60.052V62.914ZM66.436 67H64.816V59.476V59.35V58.216H66.436V67ZM61.432 62.302H63.052V65.164C63.052 65.368 63.088 65.506 63.16 65.578C63.232 65.65 63.376 65.686 63.592 65.686H64.222C64.426 65.686 64.576 65.644 64.672 65.56C64.768 65.464 64.816 65.296 64.816 65.056V64.588H64.888V65.776C64.888 66.208 64.78 66.52 64.564 66.712C64.348 66.904 64.06 67 63.7 67H63.052C62.5 67 62.092 66.868 61.828 66.604C61.564 66.328 61.432 65.932 61.432 65.416V62.302ZM69.6464 67H68.0264V54.958H69.6464V67Z" fill="black"/>
    <path d="M77.4336 19.154C74.1093 6.44901 64.3602 -0.939728 54.9466 0.0962864C33.0458 2.50582 17.9897 36.0212 0 12.8013C17.9897 39.7448 38.441 9.9099 55.3373 7.54399C64.7235 6.22992 73.5226 11.9249 77.4336 19.154Z" fill="url(#paint0_linear_0_1)"/>
    <path d="M1.79297 12.9282C1.79297 12.9282 7.57927 20.8414 16.2928 18.8844C21.9678 17.6102 26.7891 12.3625 26.7891 12.3625C26.7891 12.3625 20.9262 16.7971 13.4328 16.7971C7.14191 16.798 1.79297 12.9282 1.79297 12.9282Z" fill="url(#paint1_linear_0_1)"/>
    <path d="M53.2849 12.6367C58.4973 12.3788 63.3725 13.1943 65.6038 13.8415C69.7592 15.0463 74.0447 17.4376 77.336 21.0155C67.4615 6.01026 52.4538 8.4198 42.7256 15.2107C42.7064 15.2241 48.9767 12.8501 53.2849 12.6367Z" fill="url(#paint2_linear_0_1)"/>
    <defs>
    <linearGradient id="paint0_linear_0_1" x1="-10.4434" y1="12" x2="83.1171" y2="12" gradientUnits="userSpaceOnUse">
    <stop stop-color="#CCE0F4"/>
    <stop offset="0.0638" stop-color="#C3DCF2"/>
    <stop offset="0.1699" stop-color="#A9D2EE"/>
    <stop offset="0.3053" stop-color="#80C2E7"/>
    <stop offset="0.4629" stop-color="#47ACDE"/>
    <stop offset="0.5674" stop-color="#1D9CD7"/>
    <stop offset="0.8652" stop-color="#0074BD"/>
    <stop offset="0.9944" stop-color="#005C97"/>
    </linearGradient>
    <linearGradient id="paint1_linear_0_1" x1="-10.4433" y1="15.7795" x2="83.1177" y2="15.7795" gradientUnits="userSpaceOnUse">
    <stop stop-color="#CCE0F4"/>
    <stop offset="0.0638" stop-color="#C3DCF2"/>
    <stop offset="0.1699" stop-color="#A9D2EE"/>
    <stop offset="0.3053" stop-color="#80C2E7"/>
    <stop offset="0.4629" stop-color="#47ACDE"/>
    <stop offset="0.5674" stop-color="#1D9CD7"/>
    <stop offset="0.8652" stop-color="#0074BD"/>
    <stop offset="0.9944" stop-color="#005C97"/>
    </linearGradient>
    <linearGradient id="paint2_linear_0_1" x1="-10.4434" y1="15.4526" x2="83.1174" y2="15.4526" gradientUnits="userSpaceOnUse">
    <stop stop-color="#CCE0F4"/>
    <stop offset="0.0638" stop-color="#C3DCF2"/>
    <stop offset="0.1699" stop-color="#A9D2EE"/>
    <stop offset="0.3053" stop-color="#80C2E7"/>
    <stop offset="0.4629" stop-color="#47ACDE"/>
    <stop offset="0.5674" stop-color="#1D9CD7"/>
    <stop offset="0.8652" stop-color="#0074BD"/>
    <stop offset="0.9944" stop-color="#005C97"/>
    </linearGradient>
    </defs>
    </svg>
    