<svg width="257" height="49" viewBox="0 0 257 49" fill="none" xmlns="http://www.w3.org/2000/svg">
<path d="M24.4435 28.2307C15.2391 33.1502 4.6351 30.1222 0.433838 18.7311C4.98684 15.6835 10.5385 14.2519 15.7064 16.1115C16.3804 19.8331 18.3876 23.198 21.2581 25.7758C22.6725 27.0475 22.9873 27.1434 24.4435 28.2307Z" fill="#7BE3C4"/>
<path d="M51.2202 18.731C49.4148 23.6235 46.131 27.7485 41.2582 29.5441C39.9742 30.0213 40.8376 29.918 38.5992 28.3388C35.3179 26.0144 31.1068 25.0526 28.0346 25.1461C26.4653 25.1953 26.9253 25.1657 26.2095 25.1584C31.0011 15.5752 41.2287 12.0602 51.2202 18.731Z" fill="#7BE3C4"/>
<path d="M33.0378 13.7131C29.9754 15.3562 27.3164 18.0964 25.5601 21.9779C24.7484 23.7883 24.7853 24.1228 24.2097 25.7684C16.4787 18.2587 16.5156 7.3276 25.8283 0C30.2411 3.48055 33.2026 8.28937 33.0378 13.7131Z" fill="#7BE3C4"/>
<path d="M26.2218 34.7785C24.987 43.186 18.3875 48.0759 9.73904 48.3982C7.90899 41.9954 9.22987 36.5741 11.9676 33.069C20.1954 34.1956 25.5503 28.8653 25.6561 28.8653C26.335 28.4594 26.1579 28.2208 26.3153 29.4974C26.4678 30.5551 26.5096 32.8771 26.2218 34.7785Z" fill="#7BE3C4"/>
<path d="M41.9151 48.4005C35.2517 48.1398 30.4552 45.2078 28.0225 41.5427C29.6877 38.0646 29.9976 34.2348 29.2105 30.4615C28.8391 28.7004 28.48 27.9428 28.0766 26.5997C38.6117 28.1887 45.1965 36.8274 41.9151 48.4005Z" fill="#7BE3C4"/>
<path d="M86.9384 26.071H88.6257V35.0933C86.4562 37.1595 83.3225 38.1926 80.0166 38.1926C72.7505 38.1926 67.4128 32.9927 67.4128 25.9676C67.4128 18.9426 72.7505 13.7427 80.0511 13.7427C83.5291 13.7427 86.594 14.8446 88.7291 17.0486L87.6271 18.2194C85.5265 16.1532 83.0126 15.3612 80.0855 15.3612C73.818 15.3612 69.1691 19.9068 69.1691 25.9676C69.1691 31.994 73.818 36.5741 80.0855 36.5741C82.6338 36.5741 84.9755 35.9542 86.9384 34.3702V26.071Z" fill="black"/>
<path d="M111.251 31.2364H97.2694L94.2046 38.0204H92.3105L103.399 13.9148H105.155L116.244 38.0204H114.35L111.251 31.2364ZM110.596 29.7556L104.26 15.8432L97.9581 29.7556H110.596Z" fill="black"/>
<path d="M120.617 13.9148H122.374V36.4363H136.252V38.0204H120.617V13.9148Z" fill="black"/>
<path d="M140.763 13.9148H142.519V36.4363H156.397V38.0204H140.763V13.9148Z" fill="black"/>
<path d="M177.539 36.4363V38.0204H160.906V13.9148H177.022V15.4989H162.662V25.0034H175.507V26.553H162.662V36.4363H177.539Z" fill="black"/>
<path d="M200.68 38.0204L194.929 29.9622C194.172 30.0655 193.414 30.1344 192.587 30.1344H185.7V38.0204H183.944V13.9148H192.587C198.648 13.9148 202.299 16.9452 202.299 22.0418C202.299 25.8643 200.232 28.5159 196.651 29.5834L202.677 38.0204H200.68ZM192.587 28.5848C197.753 28.5848 200.508 26.1742 200.508 22.0418C200.508 17.875 197.753 15.4989 192.587 15.4989H185.7V28.5848H192.587Z" fill="black"/>
<path d="M208.738 13.9148H210.494V38.0204H208.738V13.9148Z" fill="black"/>
<path d="M235.53 36.4363V38.0204H218.897V13.9148H235.013V15.4989H220.653V25.0034H233.498V26.553H220.653V36.4363H235.53Z" fill="black"/>
<path d="M246.549 15.4989H237.871V13.9148H256.984V15.4989H248.306V38.0204H246.549V15.4989Z" fill="black"/>
</svg>
