<svg width="150" height="62" viewBox="0 0 150 62" fill="none" xmlns="http://www.w3.org/2000/svg">
<path fill-rule="evenodd" clip-rule="evenodd" d="M14.7717 1.82708C14.7717 2.10382 15.2214 1.55035 15.2732 1.82708C15.4462 1.53305 16.5358 1.7406 16.3802 1.48116C16.5358 1.48116 16.5358 1.48116 16.6396 1.56764C16.9855 1.3082 17.8157 1.37739 18.3692 1.15254C18.1271 1.51576 18.8708 0.789326 18.94 1.27361C19.0438 1.04876 19.7356 1.01417 19.7356 1.15254C19.7356 1.29091 19.9258 1.03147 19.995 1.03147C20.0642 1.03147 19.995 1.16984 20.1507 1.18713C20.3064 1.20443 20.6004 0.789326 20.8944 1.10065C20.8944 1.10065 20.8944 1.01417 20.8944 0.944989C21.3666 0.979218 21.8405 0.979218 22.3127 0.944989C22.6453 0.896245 22.9832 0.896245 23.3158 0.944989C23.8693 0.650958 23.9385 1.10065 24.3363 0.806621C24.3363 0.910397 24.4228 0.806621 24.4401 0.944989C24.4574 1.08336 24.5439 0.789328 24.6822 0.789328C24.8206 0.789328 24.6822 0.789328 24.8379 0.789328C24.9936 0.789328 25.547 1.01418 25.7892 0.789328C26.4944 0.894743 27.2113 0.894743 27.9166 0.789328C27.5533 0.893104 28.2625 0.996879 28.2279 0.789328C28.1933 0.581777 28.2279 0.875805 28.2279 0.944989C28.5392 0.806621 29.2311 0.789328 29.3521 1.04877C29.3521 1.04877 29.3521 1.04877 29.4386 1.04877C29.5251 1.04877 29.4386 1.04877 29.4386 0.893103C30.3773 1.03591 31.3257 1.1053 32.2751 1.10065C32.2751 1.10065 32.2751 1.10065 32.2751 1.23902C32.5692 1.23902 32.9843 1.13524 33.088 1.23902C33.1918 1.34279 33.088 1.13524 33.2264 1.13524C33.0362 1.13524 34.1431 1.29091 33.7453 1.22173C33.7453 1.11795 33.9528 1.22173 34.0393 1.22173V1.37739C34.3333 1.20443 34.9733 1.37739 35.1117 1.37739C35.25 1.37739 35.6651 1.37739 35.5614 1.51575C36.288 1.45301 37.0195 1.47624 37.7406 1.58494C37.7406 1.58494 37.9655 1.67142 37.8444 1.72331C38.1385 1.56764 38.5708 1.89627 38.7438 1.63683C38.8303 1.63683 38.8649 1.77519 38.7438 1.84438C39.1589 1.84438 39.5394 2.01734 39.8162 1.84438C40.0237 2.13841 40.3869 1.84438 40.7328 2.00004C40.9082 1.92678 41.0963 1.88906 41.2863 1.88906C41.4763 1.88906 41.6644 1.92678 41.8398 2.00004C41.8398 1.79249 42.5835 2.00004 43.0678 2.00004C43.5521 2.00004 44.3996 1.67142 44.6763 2.00004C44.8666 1.87897 44.9876 2.00004 45.1779 1.89627C46.0254 2.29407 47.1842 1.89627 48.0317 2.1903C48.0706 2.14469 48.1 2.09177 48.1182 2.03463C48.8273 2.173 49.7267 1.93086 50.2456 2.03463C50.2456 1.84438 50.7126 2.03463 50.8509 1.86167C50.9893 1.68871 50.8509 1.86167 50.8509 2.01734C50.9938 1.91342 51.1602 1.84642 51.3352 1.82228C51.5102 1.79814 51.6884 1.81761 51.8541 1.87897C52.4949 1.61859 53.1893 1.51769 53.8777 1.58494C53.8777 1.58494 53.8777 1.58494 53.8777 1.48116C55.9705 1.48116 58.2709 1.7406 60.8999 1.48116C61.6903 1.35236 62.4963 1.35236 63.2867 1.48116V1.58494C64.2726 1.58494 64.8952 1.3255 65.7081 1.58494C66.227 1.37739 67.6626 1.58494 68.7349 1.27361C68.7349 1.44657 68.9079 1.27361 68.9944 1.41198C69.0808 1.55035 68.8906 1.25632 68.9944 1.25632C69.0981 1.25632 68.9944 1.3428 69.0981 1.41198C69.2019 1.48116 69.0981 1.3082 69.0981 1.25632C69.5917 1.2455 70.0834 1.19343 70.5683 1.10065C70.3607 1.29091 70.5683 1.10065 70.724 1.23902C70.8796 1.37739 70.724 1.15254 70.6202 1.15254C71.19 1.02791 71.78 1.02791 72.3498 1.15254C72.7383 1.07782 73.1374 1.07782 73.5259 1.15254C73.5259 1.15254 73.3702 1.15254 73.3702 1.25632C73.3702 1.36009 73.7161 1.25632 73.8199 1.25632C73.8199 1.10065 73.7161 1.25632 73.6297 1.16984C73.5432 1.08336 74.0794 1.16984 74.2696 1.08336C74.2696 1.3255 73.9756 1.08336 73.8718 1.25632C76.1895 1.46387 77.8672 1.44657 79.9081 1.48116C80.4788 1.48116 81.0842 1.56764 81.6377 1.56764C82.3832 1.65368 83.1385 1.57697 83.8516 1.3428C84.8578 1.25169 85.868 1.21128 86.8783 1.22173C86.8891 1.23963 86.9043 1.25445 86.9225 1.26474C86.9407 1.27503 86.9612 1.28043 86.9821 1.28043C87.003 1.28043 87.0236 1.27503 87.0417 1.26474C87.0599 1.25445 87.0751 1.23963 87.0859 1.22173V1.41198C87.8123 1.41198 88.4869 1.41198 89.0057 1.41198C89.1441 1.72331 89.2306 1.41198 89.5592 1.41198C89.4208 1.53305 89.5592 1.41198 89.5592 1.56764C89.5592 1.72331 89.5592 1.48116 89.5592 1.41198C89.5752 1.41409 89.5906 1.41937 89.6045 1.42751C89.6184 1.43565 89.6305 1.44647 89.6402 1.45936C89.6498 1.47224 89.6568 1.48693 89.6608 1.50255C89.6647 1.51818 89.6654 1.53443 89.663 1.55035C89.9743 1.22172 90.7699 1.67142 91.3926 1.7406C92.152 1.81003 92.9162 1.81003 93.6756 1.7406C94.0895 1.63215 94.5244 1.63215 94.9382 1.7406C103.586 1.7406 113.497 1.18713 121.764 0.322338H122.491C123.234 0.322338 123.995 0.132082 124.756 0.132082C125.517 0.132082 126.486 0.218561 127.333 0.132082C128.679 0.00332043 130.031 -0.0313548 131.381 0.028307C131.848 0.028307 132.332 0.028307 132.799 0.028307C134.148 0.028307 135.428 0.426111 136.812 0.529887C137.459 0.497473 138.107 0.526431 138.749 0.616368C139.347 0.925683 139.924 1.27229 140.478 1.65412C140.824 1.82708 141.118 1.96545 141.412 2.13841C142.428 2.60228 143.308 3.31645 143.972 4.21392C143.972 4.31769 144.197 4.21392 144.283 4.35229C146.221 7.44826 146.843 12.0317 147.414 16.3729C147.459 18.4177 147.638 20.4572 147.95 22.4784C148.227 25.9376 148.659 29.4833 149.144 32.856C149.265 33.6516 149.68 34.5855 149.749 35.3639C149.818 36.1422 149.905 37.4221 149.922 38.3907C149.922 38.7539 149.922 39.1344 149.922 39.5149C150.078 41.2445 149.68 42.9741 149.714 44.7037C149.753 46.0672 149.637 47.4307 149.368 48.7682C149.417 49.0451 149.375 49.3304 149.247 49.5811C149.092 50.688 148.763 52.1063 148.521 53.2997C148.403 53.8934 148.224 54.4731 147.985 55.0293C147.649 55.5978 147.242 56.1209 146.774 56.586C146.485 57.0732 146.149 57.5308 145.771 57.9523C145.633 58.0561 145.39 58.1253 145.217 58.2637C144.337 59.0405 143.4 59.7515 142.416 60.3911C142.36 60.4213 142.297 60.4372 142.234 60.4372C142.17 60.4372 142.108 60.4213 142.052 60.3911C142.052 60.3911 142.052 60.3911 142.052 60.4948C141.134 60.7492 140.186 60.8829 139.233 60.8926C138.62 61.1224 137.968 61.2339 137.313 61.2213C137.313 61.2213 137.313 61.2213 137.417 61.1175C137.521 61.0137 137.417 61.1175 137.313 61.1175C137.209 61.1175 137.313 61.2904 137.209 61.325C136.742 61.325 136.293 61.4461 135.705 61.325C135.705 61.325 135.705 61.325 135.705 61.2213C135.342 61.2213 134.65 61.3769 134.39 61.1175C132.776 61.2071 131.158 61.1142 129.565 60.8407C129.565 60.6678 129.565 60.6851 129.565 60.8407C129.113 60.8616 128.661 60.7971 128.233 60.6505C128.233 60.6505 128.233 60.7543 128.44 60.6505C126.261 60.6505 123.701 60.4775 121.522 60.2527C121.539 60.2022 121.539 60.1475 121.522 60.097C121.28 60.097 121.522 60.2354 121.332 60.3046C121.083 60.2344 120.82 60.2344 120.571 60.3046C120.571 60.1835 120.571 60.1143 120.45 60.097C120.709 60.3392 119.706 60.097 119.602 60.097C119.332 60.1164 119.06 60.1164 118.789 60.097C118.789 60.097 118.789 60.097 118.789 59.9414C118.789 59.7857 118.582 59.9414 118.443 59.9414C118.305 59.9414 118.443 60.097 118.599 60.097C118.755 60.097 118.409 60.097 118.391 60.097C117.359 60.2201 116.313 60.1734 115.296 59.9587C115.233 60.0123 115.153 60.0417 115.071 60.0417C114.988 60.0417 114.909 60.0123 114.846 59.9587C114.846 59.9587 114.967 59.9587 114.95 59.803C114.932 59.6473 114.811 59.9241 114.794 60.0105C114.119 60.0105 113.722 59.7857 113.185 60.0105C113.185 60.0105 113.185 60.0106 113.185 59.9068C112.967 59.9218 112.747 59.9218 112.528 59.9068C112.528 59.7857 112.632 59.6992 112.528 59.6127C112.355 59.803 112.13 59.803 112.182 59.8722C112.234 59.9414 111.577 59.8722 111.715 59.7857C111.057 59.9962 110.35 59.9962 109.692 59.7857C109.536 59.9933 109.259 59.9068 108.688 59.9241C108.705 59.9057 108.725 59.8909 108.747 59.8808C108.769 59.8707 108.794 59.8655 108.818 59.8655C108.843 59.8655 108.867 59.8707 108.889 59.8808C108.912 59.8909 108.932 59.9057 108.948 59.9241C108.948 59.7684 108.758 59.803 108.948 59.6819C108.792 60.1489 107.997 59.8895 107.789 59.976C107.582 60.0624 107.789 59.7684 107.685 59.7338C107.582 59.6992 107.685 59.8549 107.685 59.976C107.443 59.976 107.322 59.8722 107.115 59.7511V59.8549C106.596 60.0451 106.198 59.8549 105.852 59.9933C105.852 59.7684 105.281 60.1662 105.35 59.7684C105.126 59.7684 105.091 60.0624 104.745 59.9933C104.745 59.7511 104.52 59.9933 104.537 59.803C104.537 60.0451 104.347 60.0624 103.932 60.0278C104.036 59.8376 103.932 59.8203 103.673 59.8203C103.682 59.8718 103.707 59.9192 103.744 59.9562C103.781 59.9933 103.829 60.0183 103.88 60.0278C103.742 60.1835 103.085 59.8376 103.085 60.1489C102.95 60.0844 102.802 60.0509 102.652 60.0509C102.503 60.0509 102.355 60.0844 102.22 60.1489C102.22 59.9587 102.081 60.0278 102.012 59.9587C102.012 60.2527 101.407 60.0797 101.251 60.0797C101.096 60.0797 100.75 60.2873 100.542 60.0797C100.5 60.1227 100.47 60.1765 100.456 60.2354C100.144 60.1316 99.7465 60.0797 99.6427 60.2354C99.4525 60.2354 99.0547 60.1143 98.9336 60.2354C98.8125 60.0624 98.7433 60.1143 98.5358 60.2354C98.3282 60.3565 98.6223 60.2354 98.6223 60.0797C98.6223 59.9241 98.3974 60.1835 98.1726 60.2527C98.1928 60.2028 98.1928 60.147 98.1726 60.097C98.0342 60.097 98.0169 60.3046 97.965 60.097C97.8094 60.4257 96.9273 60.4948 96.6678 60.2873C96.6678 60.5121 95.9068 60.4429 96.0625 60.2873C95.7378 60.2903 95.414 60.3192 95.0939 60.3738C95.1141 60.3061 95.1141 60.2339 95.0939 60.1662C94.8864 60.1662 94.8864 60.3392 94.6961 60.3219C94.5058 60.3046 94.6961 60.2181 94.6961 60.1316C94.6961 60.0451 94.5231 60.3219 94.4021 60.3911C94.147 60.2872 93.8615 60.2872 93.6065 60.3911C93.7448 60.2008 93.3989 60.3911 93.3989 60.3911C93.3989 60.3911 93.5027 60.2873 93.3989 60.1835C93.2968 60.2546 93.2136 60.3496 93.1568 60.4602C93.1568 60.1662 92.7762 60.5813 92.6898 60.2181C92.6033 60.2181 92.6898 60.4257 92.4476 60.3738C92.5102 60.2971 92.5572 60.209 92.586 60.1143C92.4476 60.2181 92.3439 60.1143 92.2401 60.2354C92.1363 60.3565 92.2401 60.2354 92.3438 60.3392C92.119 60.3392 91.9115 60.3392 91.6347 60.3392C91.6591 60.3135 91.6726 60.2794 91.6726 60.244C91.6726 60.2087 91.6591 60.1746 91.6347 60.1489C91.4272 60.1489 91.4964 60.4429 91.185 60.3565C91.185 60.0624 90.4932 60.0451 90.2683 60.1835C90.0435 60.3219 90.0781 60.0797 90.0089 59.9933C89.8014 60.27 90.0089 59.9933 89.6111 60.1143C89.6111 60.1143 89.6111 60.2527 89.6111 60.27C89.6111 60.2873 89.4381 60.27 89.4554 60.1143C89.4727 59.9587 89.6284 60.2181 89.6284 60.3911C89.3689 60.3911 89.1095 60.3911 88.8847 60.3911C88.6598 60.3911 89.023 60.3911 89.023 60.2354C89.023 60.0797 88.729 60.2354 88.729 60.4429C88.729 60.6505 88.435 60.4429 88.4177 60.2008C88.4004 59.9587 88.4177 60.3046 88.4177 60.4084C88.4177 60.5121 88.0545 60.4084 87.8642 60.2181C87.8642 60.4429 87.5529 60.2181 87.3972 60.097C87.2416 59.976 87.2934 60.097 87.1897 60.097C87.3107 60.3911 86.9475 60.097 86.74 60.27C86.74 60.097 86.8956 60.27 86.9994 60.1489C86.7054 59.9241 86.5324 60.27 86.1346 60.1489C86.1346 60.0106 86.1346 60.0278 86.1346 59.9068C86.1346 59.7857 85.979 60.0797 85.9271 59.9068C85.8774 59.9874 85.8129 60.0579 85.7368 60.1143C85.5984 60.1143 85.8752 59.9414 85.7368 59.8722C85.5984 59.803 85.4428 59.8722 85.339 60.0797C85.2352 60.2873 85.339 60.0797 85.339 59.9414C85.339 59.803 85.339 60.0451 85.2006 60.0451C85.0623 60.0451 85.0969 59.8203 84.9758 59.803C84.8547 59.7857 84.4569 59.803 84.3358 60.0797C84.3358 60.0797 84.1456 60.0797 84.0245 60.0797C83.9035 60.0797 84.1629 59.976 84.1802 59.8722C84.1975 59.7684 84.1802 59.976 84.284 59.976C84.284 59.6646 84.111 59.976 83.9726 59.976C83.8343 59.976 83.9726 59.976 83.9726 60.1143C83.9726 60.2527 83.7132 59.9068 83.7305 60.1143C83.7478 60.3219 83.7305 60.1143 83.7305 59.9587C83.7305 59.803 83.6094 59.9587 83.4883 59.9587C83.3673 59.9587 83.4883 59.9587 83.4883 59.803C83.1943 59.9414 83.0559 60.0624 82.7619 59.803C82.3468 60.1316 81.8452 59.4571 81.5166 59.9414C81.4128 59.9414 81.3782 59.7338 81.2572 59.6992C81.1361 59.6646 80.8767 59.6992 80.5999 59.8895C80.3924 59.3706 80.1329 60.0278 79.8389 59.8895V59.7511C79.8389 59.7511 79.5449 60.0624 79.5276 59.7511C79.5276 59.7511 79.5276 59.8549 79.5276 59.9068C79.5276 59.9587 79.4065 59.7857 79.5276 59.7165C79.6487 59.6473 79.3027 59.7165 79.2335 59.8722C79.1644 60.0278 78.7665 59.8722 78.4206 59.8722C78.4289 59.8385 78.4494 59.8092 78.4783 59.79C78.5071 59.7708 78.5421 59.7631 78.5763 59.7684C78.4957 59.6997 78.4358 59.6098 78.4033 59.509C78.2823 59.509 78.2304 59.6473 78.1612 59.7338C78.0401 59.4917 77.7288 59.8895 77.8153 59.63C77.9018 59.3706 77.5558 59.63 77.6077 59.803C77.6596 59.976 77.504 59.6127 77.2618 59.803C77.2618 59.6473 77.3656 59.5781 77.2618 59.5436C77.158 59.509 77.2618 59.6819 77.2618 59.6992C77.2618 59.7165 76.6219 59.6992 76.8121 59.6992C76.6564 59.6992 76.6046 59.803 76.57 59.9068C76.103 59.9068 75.5495 59.6473 75.2555 59.9068C75.0652 59.5263 74.7539 59.9068 74.4426 59.9068C74.1313 59.9068 74.4426 59.9068 74.4426 59.6992C74.1645 59.7695 73.8732 59.7695 73.5951 59.6992C73.6025 59.7237 73.6159 59.746 73.634 59.7641C73.6521 59.7822 73.6744 59.7956 73.6989 59.803C73.6989 59.976 73.4913 59.6646 73.5432 59.9068C73.5432 59.9068 73.4221 59.8203 73.4394 59.7165C73.4567 59.6127 73.2837 59.9068 73.2319 59.7165C73.18 59.5263 73.0416 59.8722 72.9378 59.9241C72.8341 59.976 72.5919 59.8203 72.4881 59.9241C72.415 59.89 72.3353 59.8724 72.2546 59.8724C72.174 59.8724 72.0943 59.89 72.0211 59.9241C72.0211 59.9241 72.0211 59.8376 72.0211 59.7857C72.0211 59.7338 71.9001 59.9933 71.6752 59.9414C71.4504 59.8895 71.6752 59.8549 71.6752 59.7857C71.3466 59.7857 71.1391 60.0624 70.8623 59.8722C70.8623 60.0451 70.3607 59.8722 70.4991 59.8722C70.6375 59.8722 70.4991 59.8722 70.4991 60.0278C69.9975 59.8203 70.084 60.0278 69.6343 60.0278C69.6343 60.0278 69.6343 60.0278 69.7381 60.0278C69.4959 59.8722 69.3749 60.1316 68.9771 60.0278C68.9771 60.0278 68.9771 60.0278 68.9771 59.8722C68.9268 59.8907 68.8716 59.8907 68.8214 59.8722C68.8214 59.8722 68.8214 59.8722 68.9252 59.8722C68.6657 59.976 68.2679 59.8722 68.1296 60.0624C68.0149 59.9167 67.862 59.8056 67.688 59.7414C67.5139 59.6773 67.3255 59.6627 67.1437 59.6992C67.1437 59.6992 67.1437 59.803 67.2475 59.803C67.3512 59.803 67.0745 59.803 66.9534 59.803C67.1437 59.6646 66.9534 59.6992 66.7459 59.6992C66.5383 59.6992 66.2789 59.6992 66.0368 59.8376C66.0368 59.7338 66.2097 59.8376 66.1924 59.6819C66.1751 59.5263 65.8638 59.803 65.9849 59.6819C65.8465 59.8376 65.3795 59.8376 65.3276 59.8549C65.1281 59.8979 64.9218 59.8979 64.7223 59.8549C64.7223 59.8549 64.7223 59.6819 64.7223 59.6646C64.7223 59.6473 64.7223 59.803 64.5666 59.8203C64.7915 59.8203 64.0477 59.7165 64.2726 59.8203C64.0823 59.8203 64.0477 59.8203 63.9613 59.7165C63.9613 59.8203 63.8402 59.9414 63.6672 59.9414C63.6874 59.8914 63.6874 59.8356 63.6672 59.7857C63.4943 59.7857 63.6672 59.8722 63.5289 59.9933C63.3905 60.1143 63.3732 59.9933 63.4251 59.803C63.1483 59.803 63.2348 60.0105 62.9754 60.0105C63.1829 59.7684 62.6987 59.9241 62.5776 60.0105C62.4565 60.097 62.5776 59.8376 62.4565 59.8203C62.2655 59.8545 62.0796 59.9127 61.903 59.9933C61.903 59.9933 61.903 59.9933 61.903 59.8376H61.782C61.782 59.9587 61.609 60.0451 61.6436 59.8376C61.5052 60.0278 61.436 59.8376 61.2458 60.0451C60.8826 59.6819 60.1216 60.1835 59.8102 59.8549C59.8102 59.8549 59.8102 60.0278 59.8102 60.0624C59.8102 60.097 59.1703 60.0624 58.9973 59.9414C58.7379 60.1835 58.4611 60.0797 58.1844 59.9414C58.2015 59.9918 58.2015 60.0466 58.1844 60.097C58.1844 60.097 58.1844 60.097 58.0288 59.9933C57.8731 59.8895 56.9218 60.1835 56.4202 60.1662C56.4043 60.1638 56.3881 60.1645 56.3724 60.1685C56.3568 60.1724 56.3421 60.1794 56.3292 60.189C56.3164 60.1987 56.3055 60.2108 56.2974 60.2247C56.2893 60.2386 56.284 60.254 56.2819 60.27C55.8412 60.2149 55.3939 60.2502 54.9674 60.3738C54.9674 60.27 55.0884 60.27 55.1057 60.1662C55.123 60.0624 54.9155 60.1662 54.9155 60.3738C54.6906 60.2181 54.7944 60.3738 54.6042 60.3738C54.4139 60.3738 53.7394 60.3738 53.2897 60.3738V60.4602C52.5834 60.4356 51.8765 60.4819 51.1796 60.5986C51.2833 60.4084 51.1796 60.5986 51.0585 60.4429C51.0585 60.5986 50.7126 60.564 50.7299 60.7197C50.505 60.5467 50.3321 60.7197 50.3148 60.5294C49.8305 60.8408 49.4327 60.6678 48.9484 60.7889C48.9484 60.7889 48.9484 60.7889 48.9484 60.6851C48.9484 60.5813 48.7927 60.8235 48.7927 60.6851C48.6371 60.9618 48.1528 60.7889 47.8933 60.7716C47.9008 60.7961 47.9141 60.8184 47.9322 60.8365C47.9503 60.8546 47.9726 60.8679 47.9971 60.8753C47.9971 60.8753 47.3399 60.9964 47.5301 60.8753C47.2015 60.8753 46.821 61.0483 46.7172 60.8753C46.532 60.9682 46.3277 61.0165 46.1205 61.0165C45.9133 61.0165 45.709 60.9682 45.5238 60.8753C45.492 60.8865 45.4646 60.9078 45.4459 60.9358C45.4272 60.9639 45.4181 60.9973 45.42 61.031C45.0923 60.9368 44.7446 60.9368 44.4169 61.031C44.2612 60.8926 43.5348 61.031 43.1024 61.031C43.1024 61.031 43.1024 61.031 43.1024 60.9272C42.8256 61.0483 42.2376 60.9272 42.0992 61.1175C42.0992 61.1175 42.0992 61.1175 42.0992 60.9791C42.0992 60.8408 41.9954 60.9791 41.9954 60.8753C41.9954 60.7716 41.8744 60.8753 41.9954 60.9791C41.4265 61.1119 40.8347 61.1119 40.2658 60.9791C40.2658 61.1521 39.3838 60.9791 38.7957 61.0829C38.4912 61.1218 38.1904 61.1854 37.8963 61.2731C37.7406 61.2731 37.5677 61.2732 37.585 61.0829C37.4896 61.1328 37.4067 61.2038 37.3428 61.2904C37.2391 61.2904 37.2391 61.2904 37.2391 61.1348C37.2391 60.9791 36.7894 61.3769 36.9277 61.1348C36.7894 61.1348 36.9277 61.325 36.7375 61.2904C36.5472 61.2559 36.4607 61.204 36.3224 61.2904C36.3426 61.2405 36.3426 61.1847 36.3224 61.1348C36.1667 61.1348 36.0802 61.2559 35.9592 61.1348C36.0629 61.3769 35.9592 61.1348 35.8727 61.2904C35.7862 61.4461 35.8727 61.2904 35.8727 61.1867C35.8727 61.0829 35.7516 61.1867 35.6651 61.2904C35.5787 61.3942 35.6651 61.1694 35.5614 61.1002C35.4576 61.031 35.2327 61.1002 35.2154 61.3077C35.2154 61.1521 34.8349 61.3077 34.7484 61.1348C34.9041 61.3077 34.4544 61.1348 34.4025 61.3423C34.3506 61.5499 34.0739 61.2386 34.195 61.1002C34.195 61.3423 33.9355 61.1002 33.8491 61.3077C33.7626 61.5153 33.8491 61.204 33.6934 61.2213C33.5377 61.2386 33.4685 61.2213 33.1918 61.2213C32.9151 61.2213 33.0016 61.3423 32.8805 61.3423C32.7594 61.3423 32.4481 61.204 32.2751 61.204C32.1022 61.204 32.0503 61.3423 31.9292 61.325C31.8081 61.3077 31.7735 61.325 31.7735 61.325C31.6269 61.4118 31.4596 61.4575 31.2893 61.4575C31.1189 61.4575 30.9516 61.4118 30.805 61.325C30.6839 61.6191 30.3899 61.325 30.2169 61.5499C30.2169 61.4115 30.2169 61.4461 30.2169 61.3596C30.2169 61.2732 30.1131 61.3596 30.0267 61.3596C29.9402 61.3596 30.0267 61.3596 30.1304 61.3596C29.7672 61.4634 29.2483 61.3596 28.8159 61.498C29.0754 61.2904 28.5738 61.498 28.8159 61.3596C28.5046 61.5499 28.2452 61.3596 28.003 61.4807C27.7609 61.6018 28.003 61.325 27.8474 61.2904C27.6917 61.2559 27.8474 61.4115 27.8474 61.498C27.6791 61.4413 27.4968 61.4413 27.3285 61.498C27.3285 61.4115 27.2074 61.3769 27.1209 61.2559C27.0345 61.1348 27.1209 61.3769 27.1209 61.4634C27.1209 61.5499 26.8269 61.4634 26.8096 61.4634C26.7923 61.4634 26.8096 61.3596 26.8096 61.3077C26.4983 61.3077 26.2907 61.671 26.308 61.3077C26.0486 61.498 25.6335 61.498 25.547 61.3077C25.253 61.5153 25.08 61.3077 24.7341 61.4461C24.3882 61.5845 24.1288 61.2732 23.7309 61.4461C23.7309 61.4461 23.4715 61.6191 23.5234 61.4461C23.5753 61.2732 23.3158 61.5499 23.1775 61.5672C23.4369 61.4115 22.6413 61.3942 22.6586 61.5672C22.6759 61.7401 22.6586 61.4807 22.5548 61.4115C22.4511 61.3423 22.4165 61.5845 22.2089 61.5326C22.0014 61.4807 22.2089 61.4288 22.2089 61.325C22.0878 61.5499 21.8976 61.325 21.6727 61.5499C21.4133 61.3423 21.3268 61.6537 20.8944 61.3769C20.8944 61.3769 20.8944 61.3769 20.8944 61.4807C20.8944 61.5845 20.1334 61.5845 20.2718 61.4807C19.8567 61.5845 19.5626 61.4807 19.0092 61.6364C19.1129 61.5326 19.0092 61.5326 19.0092 61.4288C18.7843 61.5845 18.5768 61.4288 18.3 61.5672C18.3 61.5672 18.3 61.5672 18.4038 61.5672C18.5076 61.5672 17.9887 61.5672 17.6947 61.5672C17.4006 61.5672 17.5044 61.4288 17.3833 61.4288C17.2623 61.4288 16.8472 61.6191 16.9855 61.3423C16.8991 61.3423 16.8991 61.3423 16.8299 61.3423C16.7607 61.3423 16.951 61.3423 16.9337 61.498C16.9164 61.6537 16.7088 61.498 16.7261 61.2904C16.6122 61.3568 16.4857 61.3988 16.3547 61.4137C16.2237 61.4286 16.091 61.416 15.9651 61.3769C15.9651 61.3769 15.9651 61.2386 15.9651 61.2213C15.9651 61.204 15.377 61.4461 15.4116 61.2213C15.3078 61.2213 15.1176 61.2213 15.0138 61.325C14.9273 61.0483 14.0798 61.325 13.6301 61.031C13.2496 61.031 12.5405 61.204 12.2119 61.031C12.2009 61.0065 12.1952 60.98 12.1952 60.9532C12.1952 60.9263 12.2009 60.8998 12.2119 60.8753C12.2119 60.8753 12.0735 60.8753 12.0562 60.9964C12.0562 60.7197 11.6238 60.9964 11.5373 60.6505C11.3471 60.7889 11.3125 60.5294 11.0876 60.6505C10.8628 60.7716 10.9493 60.6505 10.932 60.4602C10.9147 60.27 10.8455 60.5986 10.8282 60.3565C10.8109 60.1143 10.5342 60.5121 10.5688 60.3565C10.3958 60.3565 10.3439 60.3565 10.1191 60.3565C10.1191 60.1143 9.72126 60.2527 9.70396 60.0105C9.5483 60.1489 9.47911 60.0105 9.28886 60.0105C9.0986 60.0105 9.28886 59.8895 9.28886 59.8549C9.28886 59.8203 9.37533 59.8549 9.28886 59.6646C9.1159 59.7684 9.28886 59.9068 9.20238 59.9587C9.1159 60.0105 8.99483 59.6473 8.96024 59.9587C8.87376 59.9587 8.78728 59.9587 8.78728 59.7684C8.78728 59.5781 8.56243 59.7684 8.33758 59.7684C8.11273 59.7684 8.2511 59.5263 8.02625 59.63C7.73222 59.3533 7.74952 59.3014 7.29983 59.3014C7.4036 58.9555 6.85013 59.1112 6.83284 58.8171C6.5388 58.9382 6.59069 58.5231 6.27937 58.6269C6.38314 58.5058 6.27937 58.3674 6.27937 58.281C6.27937 58.1945 6.27937 58.4366 6.27937 58.5231C6.01993 58.2118 5.50105 58.1426 5.44916 57.8486C5.3108 57.8486 4.79192 57.6237 4.8784 57.3643C4.96488 57.1048 4.79192 57.3643 4.61896 57.3643C4.446 57.3643 4.4633 57.1913 4.61896 57.0011C4.77462 56.8108 4.61896 57.1221 4.48059 57.1221C4.48059 56.7935 3.5812 56.5687 3.52931 56.1363C3.52931 56.1363 3.52932 56.1363 3.63309 56.1363C3.47196 55.9785 3.29845 55.8339 3.11421 55.7039C3.11421 55.6001 3.11421 55.5828 3.11421 55.4963C3.11421 55.4098 2.97585 55.4963 3.11421 55.6001C3.25258 55.7039 2.97585 55.2888 2.78559 55.2542C2.83036 55.1906 2.86534 55.1206 2.88937 55.0466C2.88937 54.9083 2.78559 55.0466 2.68182 55.0466C2.57804 55.0466 2.68182 54.7353 2.45697 54.545C2.64723 54.545 2.45697 54.2856 2.54345 54.078C2.62993 53.8705 2.40508 54.078 2.38778 53.9397C2.37049 53.8013 2.38779 54.0435 2.30131 54.0435C2.21483 54.0435 2.30131 54.0435 2.49156 54.0435C2.49156 54.4067 2.11105 54.0435 2.3359 53.8532C2.56075 53.6629 2.3359 53.8532 2.18024 53.8532C2.11526 53.3933 1.94348 52.9549 1.67865 52.5733C1.7063 52.4515 1.77314 52.3421 1.86891 52.262C1.59217 52.262 1.86891 51.795 1.55758 51.8123C1.67865 51.5528 1.17707 51.155 1.55758 50.7572C1.43651 50.7572 1.55758 50.9821 1.41921 50.9129C1.31668 50.5452 1.31668 50.1564 1.41921 49.7887H1.26355C1.50569 49.5984 1.14248 49.1833 1.26355 48.9758C1.14248 48.9758 1.26355 48.9757 1.14248 48.7682C1.02141 48.5606 1.14248 48.7682 1.24625 48.7682C1.35003 48.7682 1.14248 48.5261 1.24625 48.6125C1.00411 48.3358 1.24625 48.111 1.24625 47.7996L1.10789 47.9553C0.952224 47.9553 1.10789 47.6786 0.986816 47.7132C1.17707 47.6267 0.986817 47.2116 1.15978 47.0559C0.952225 47.0559 0.986817 46.6581 1.15978 46.5024C1.33274 46.3468 1.15978 46.5024 1.15978 46.6062C1.18608 46.2666 1.18608 45.9254 1.15978 45.5858C1.21025 45.6029 1.26497 45.6029 1.31544 45.5858C1.31544 45.4647 1.31544 45.482 1.15978 45.482C1.00411 45.482 1.15978 45.3436 1.15978 45.2225C1.15978 45.1015 1.31544 45.309 1.40192 45.3263C1.30739 45.203 1.20329 45.0873 1.09059 44.9804C1.09059 44.9804 1.29814 44.7556 1.09059 44.7728C1.29814 44.7728 1.22896 44.4788 1.09059 44.3232C0.952224 44.1675 1.09059 44.2194 1.22896 44.3232C1.14837 44.1648 1.09016 43.996 1.056 43.8216C1.056 43.8216 1.14248 43.8216 1.21166 43.8216C1.28085 43.8216 1.0733 43.8216 1.10789 43.5794C1.14248 43.3373 1.10789 43.5794 1.26355 43.5794C1.41921 43.5794 1.26355 43.3892 1.14248 43.1124C1.14248 43.1124 1.22896 43.2162 1.29814 43.2162C1.36733 43.2162 1.19437 42.9395 1.17707 42.6109C1.28085 42.6109 1.17707 42.7492 1.38462 42.7146C1.15977 42.3341 1.38462 41.9882 1.24625 41.7461C1.40192 41.8498 1.24625 41.7461 1.24625 41.5904C1.45381 41.8152 1.35003 41.5904 1.35003 41.2964C1.37185 41.3059 1.39541 41.3108 1.41921 41.3108C1.44302 41.3108 1.46658 41.3059 1.4884 41.2964V41.1061C1.28085 41.1061 1.29814 41.2791 1.4884 41.1061C1.14248 40.7083 1.4884 40.3451 1.33274 39.9473C1.33274 39.9473 1.43651 39.9473 1.4884 39.9473C1.38462 39.6533 1.59217 39.4284 1.40192 39.1517C1.60947 39.1517 1.40192 39.2727 1.52299 39.3419C1.78243 39.1344 1.52299 39.0998 1.52299 38.8403C1.56826 38.8529 1.61608 38.8529 1.66136 38.8403C1.50569 38.7193 1.66136 38.3215 1.74784 38.2177C1.83432 38.1139 1.52299 38.2177 1.55758 38.3734C1.59217 38.529 1.67865 38.1831 1.64406 38.0274C1.60947 37.8718 1.73054 37.8891 1.52299 37.8199C1.52299 37.6815 1.60947 37.941 1.73054 37.8199C1.57488 37.5259 1.73054 37.3183 1.85161 37.007C1.69595 37.007 1.85161 37.2491 1.55758 37.2145C1.59624 37.1143 1.59624 37.0034 1.55758 36.9032C1.66136 36.9032 1.67865 36.9032 1.55758 36.9032C1.43651 36.9032 1.73054 36.7994 1.76513 36.7475C1.79973 36.6957 1.76513 36.6438 1.76513 36.54C1.7322 36.5429 1.70104 36.5561 1.67617 36.5779C1.65129 36.5997 1.63399 36.6288 1.62677 36.6611C1.62677 36.5054 1.62677 36.1422 1.9208 36.2806C1.9208 36.0903 1.71324 36.1076 1.64406 36.0038C1.57488 35.9 2.05916 36.2806 2.04187 35.8827C2.04187 35.8827 1.9035 35.8827 1.85161 36.0384C1.79972 36.1941 2.07646 35.6752 1.74784 35.6925C1.74784 35.2947 1.66136 35.2947 1.74784 34.9315C2.09376 35.0179 1.74784 34.551 1.74784 34.672C1.74784 34.7931 1.41921 34.2569 1.41921 34.4472C1.41921 34.6374 1.41921 34.2223 1.41921 34.205C1.41921 34.1877 1.41921 34.2742 1.41921 34.4472C1.41921 34.6201 1.50569 34.1013 1.41921 33.9283C1.33273 33.7553 1.41922 34.1186 1.33274 34.1877C1.24626 34.2569 1.33273 33.5824 1.50569 33.6689C1.42338 33.6004 1.35321 33.5185 1.29814 33.4267C1.29814 33.2884 1.40192 33.3229 1.45381 33.2711C1.19437 33.2711 1.33273 33.0635 1.28085 32.7176C1.28085 32.7176 1.28085 32.7176 1.41921 32.7176C1.55758 32.7176 1.33274 32.51 1.31544 32.3717C1.29814 32.2333 1.4711 32.2506 1.45381 32.1122C1.43651 31.9739 1.45381 32.2333 1.29814 32.216C1.14248 32.1987 1.54029 31.9566 1.29814 31.9566C1.29814 31.8528 1.43651 31.8355 1.45381 31.9566C1.4711 32.0776 1.31544 31.9566 1.45381 31.7144C1.59217 31.4723 1.60947 31.7144 1.71325 31.7144C1.69082 31.6471 1.69082 31.5742 1.71325 31.5069C1.60947 31.5069 1.54029 31.5069 1.55758 31.6279C1.57488 31.749 1.55758 31.3512 1.55758 31.2128C1.38462 31.4031 1.55758 31.0053 1.64406 30.815C1.73054 30.6248 1.64406 30.815 1.4884 30.815C1.33274 30.815 1.4884 30.5729 1.4884 30.3999C1.4884 30.227 1.57488 30.3999 1.59217 30.2443C1.60947 30.0886 1.59217 29.9848 1.4711 29.7946C1.59217 30.0021 1.62677 29.7946 1.60947 29.5351C1.59217 29.2757 1.60947 29.8292 1.4711 29.76C1.4711 29.3103 1.4711 29.0336 1.64406 28.8779C1.4884 28.6703 1.64406 28.4455 1.55758 28.1342C1.83432 28.3244 1.55758 27.7537 1.79972 27.8747C1.4711 27.5634 1.79973 27.1483 1.62677 26.958C1.62677 26.8543 1.83432 26.8197 1.81702 26.958C1.79972 27.0964 1.81702 26.958 1.9208 26.958C2.02457 26.958 1.9208 26.7851 1.71325 26.8024C1.79972 26.2489 1.71324 26.0068 1.97268 25.73C1.87814 25.6751 1.80499 25.5897 1.76513 25.4879C1.76513 25.3149 1.86891 25.263 1.95539 25.1766C1.66136 24.8998 2.11105 24.6231 1.86891 24.3637C1.95539 24.3637 1.95539 24.3637 2.02457 24.3637C1.81702 24.1734 2.02457 24.0869 2.11105 23.8621C1.95539 24.1042 2.11105 22.98 2.11105 22.9973C2.11105 23.0146 2.3186 23.1011 2.3186 22.9973C2.3186 22.8935 2.14564 22.9973 2.11105 22.9973C2.07646 22.9973 2.24942 22.3919 2.11105 22.1325C2.3186 22.1325 2.11105 22.1325 2.11105 22.34C2.11105 22.5476 2.11105 22.2363 2.21482 22.2363C2.3186 22.2363 1.93809 21.9249 2.09375 21.7347C2.24942 21.5444 2.09376 21.873 2.19753 21.873C2.24048 21.8332 2.27488 21.7851 2.29867 21.7316C2.32245 21.6781 2.33512 21.6203 2.3359 21.5617C2.3359 21.4579 2.21483 21.5617 2.12835 21.5617C2.04187 21.5617 2.12835 21.1466 2.28401 21.2504C2.28401 21.0774 2.14564 21.2504 2.12835 21.2504C2.11105 21.2504 2.12835 20.9737 2.3532 20.8872C2.3532 20.8872 2.3532 20.8872 2.3532 20.7315C2.33137 20.741 2.30782 20.746 2.28401 20.746C2.2602 20.746 2.23665 20.741 2.21482 20.7315C2.3186 20.7315 2.21483 20.5067 2.40508 20.524C2.59534 20.5413 2.3186 20.2991 2.40508 20.2126C2.18023 20.2126 2.40508 19.9532 2.54345 19.8667C2.68182 19.7802 2.40508 19.8667 2.38778 19.9705C2.37049 20.0743 2.38779 19.2095 2.61263 19.1057C2.55152 18.9371 2.54023 18.7545 2.5801 18.5797C2.61997 18.4049 2.70932 18.2452 2.83748 18.1198C2.61263 18.0161 2.83748 18.1198 2.71641 17.8258C2.76783 17.816 2.82065 17.816 2.87207 17.8258C2.68182 17.6701 2.99314 17.5837 2.87207 17.2723C3.09692 17.2723 2.87207 17.0475 3.06233 17.1686C2.7683 16.8918 3.2007 16.6497 3.06233 16.4075C3.12094 16.3648 3.1849 16.3299 3.25258 16.3038C3.25258 16.1885 3.21799 16.1193 3.14881 16.0962C3.14881 15.9233 3.28717 16.0962 3.39095 16.0962C3.49472 16.0962 3.1834 15.9406 3.1834 15.7676C3.1834 15.5946 3.1834 15.5254 3.37365 15.5946C3.56391 15.6638 3.37365 15.5946 3.26988 15.5946C3.65039 15.2833 3.39095 15.0758 3.54661 14.7125C3.54661 14.8855 3.82335 14.5742 3.84064 14.4012C3.85794 14.2283 3.75416 14.6434 3.63309 14.4012C3.84064 14.1245 3.63309 14.0726 3.97901 13.9342C3.97901 13.9342 3.82335 13.9342 3.85794 13.6921C3.89253 13.4499 3.85794 13.8823 4.06549 13.8305C4.06549 13.4845 4.06549 12.9138 4.53248 12.7062C4.53248 12.5333 4.37682 12.7062 4.4287 12.4987C4.48059 12.2911 4.4287 12.3257 4.67085 12.3949C4.56707 11.9971 4.91299 11.8933 4.79192 11.6339C5.03406 11.6339 5.01677 11.2707 5.03406 11.2188C5.05136 11.1669 5.32809 10.8556 5.25891 10.5096C5.25891 10.5096 5.25891 10.5096 5.41457 10.5096C5.57023 10.5096 5.55294 10.181 5.41457 9.90427C5.63942 10.1637 5.41457 9.59295 5.74319 9.59295C5.83084 9.13808 6.0266 8.71097 6.31396 8.34764C6.31396 8.34764 6.22748 8.34764 6.21018 8.34764C6.19289 8.34764 6.21018 8.14009 6.29666 8.05361C6.38314 7.96713 6.29666 8.05361 6.29666 8.19198C6.43503 7.6904 6.43503 7.258 6.79825 7.06775C6.79825 6.53157 7.54197 5.90892 7.69763 5.33815C7.8187 5.33815 7.92248 4.99223 8.14733 5.18249C8.12867 5.14179 8.11901 5.09754 8.11901 5.05277C8.11901 5.008 8.12867 4.96375 8.14733 4.92305C9.37533 4.12744 10.2747 2.98591 11.7103 2.81295C11.7103 2.81295 11.7103 2.72647 11.7103 2.65729C12.6616 2.39785 13.5782 2.19029 14.4257 1.94815C14.322 2.12111 14.6679 1.94815 14.7717 1.94815M72.9378 1.37739C73.0243 1.37739 73.2146 1.37739 73.18 1.20443C73.1454 1.03147 72.9032 1.20443 72.9378 1.37739ZM72.1249 1.20443C71.9931 1.18451 71.859 1.18451 71.7271 1.20443C71.7271 1.20443 72.1595 1.3428 72.1249 1.20443Z" fill="#1D1D1B"/>
<path fill-rule="evenodd" clip-rule="evenodd" d="M29.5078 28.2725C28.8333 26.9235 28.3663 25.4014 27.6226 24.1388C27.3285 23.6545 26.9134 23.2221 26.6021 22.7379C26.2397 22.2593 25.9103 21.7565 25.6163 21.2331C25.132 20.1608 24.8898 19.0711 24.4055 18.0853C24.0942 17.2378 23.7829 15.8022 22.9008 15.5601C23.0219 15.4044 22.6414 15.266 22.5549 15.2141C21.9351 15.067 21.2894 15.067 20.6696 15.2141C20.326 15.488 20.0282 15.815 19.7875 16.1827C19.6837 16.3384 19.7875 16.5459 19.6492 16.7708C19.5108 16.9956 19.3724 17.1513 19.3551 17.3069C19.3242 17.7907 19.3242 18.276 19.3551 18.7598C19.3551 20.4894 19.3551 22.0633 19.3551 23.7583C19.1649 27.4942 19.58 31.7317 19.6492 35.606C19.6492 38.0793 19.5281 40.6218 19.7875 43.0779C19.7875 43.9081 19.7875 44.8074 19.7875 45.3609C19.7875 45.9144 20.1853 45.9317 20.3237 46.2776C20.6696 46.2776 20.8253 46.2776 20.9118 46.6754C21.275 46.537 21.4479 46.9867 21.7247 46.6754V46.9175C22.0373 46.7229 22.3833 46.588 22.7451 46.5197C22.8327 45.8029 22.9656 45.0924 23.1429 44.3923C23.1429 44.0118 23.1429 43.6313 23.1429 43.2162C23.1429 42.8011 23.4197 42.2131 23.4716 41.7115C23.5234 41.2099 23.4716 40.4143 23.4716 39.7743C23.4716 39.1344 23.6445 38.3042 23.6791 37.5432C23.7137 36.7821 23.8694 35.5714 23.8694 34.5856C23.8694 33.5997 23.6618 32.856 23.6272 31.8701C23.6272 29.6389 23.6272 27.9266 23.5234 25.9895C24.5345 27.3943 25.3492 28.9305 25.9449 30.5556C26.7232 32.0776 27.6745 33.5305 28.522 35.018C29.8365 37.2491 31.0126 39.5322 32.206 41.8152C32.6919 42.9118 33.2706 43.9649 33.9356 44.9631C34.3507 44.9631 34.5755 45.2917 34.8696 45.4128C35.1636 45.5339 35.1982 45.309 35.1982 45.5512C35.4749 45.3436 35.5614 45.4128 35.9765 45.4647C36.3831 45.2881 36.7475 45.0272 37.0456 44.6992C37.3438 44.3712 37.5689 43.9836 37.7061 43.5621C37.751 43.0269 37.751 42.4888 37.7061 41.9536C37.7061 41.452 37.8272 40.9505 37.8618 40.4489C37.9828 38.3734 37.8618 36.4881 37.8618 34.3953C37.8618 33.2711 38.2423 32.1468 38.346 30.9361C38.4498 29.7254 38.346 28.4282 38.4498 27.1483C38.5536 25.0209 38.8303 22.8416 38.8822 20.6969C38.8822 19.7284 38.7784 18.7598 38.7957 17.7912C38.813 16.8226 39.0033 15.8887 39.0379 15.0585C39.0379 14.5742 39.0379 14.1072 39.0379 13.6575C39.0906 13.5005 39.1254 13.338 39.1417 13.1732C39.1417 13.0521 38.9687 12.81 38.8995 12.5506C38.7093 11.7895 38.4671 11.4955 37.8791 11.288C37.3775 11.288 36.9451 10.9939 36.7202 11.0458C36.4954 11.0977 36.3743 11.4263 36.0284 11.3744C35.8652 11.6126 35.6529 11.8131 35.4057 11.9625C35.4057 12.3257 35.1117 12.5333 35.0252 12.8273C34.9009 13.3949 34.8659 13.9785 34.9215 14.5569C34.9215 15.3352 34.6793 16.1308 34.6274 16.9437C34.5409 18.6733 34.6274 20.2991 34.6274 21.8904C34.4545 23.914 34.1431 26.1624 34.0912 27.8056C34.0912 28.4455 34.0912 29.0855 34.0912 29.7081C33.803 31.5868 33.6297 33.4814 33.5724 35.3812C32.2406 32.8733 30.7013 30.6594 29.4386 28.1515" fill="white"/>
<path fill-rule="evenodd" clip-rule="evenodd" d="M129.202 14.8509C128.925 14.8509 128.838 15.2141 128.441 15.0239C128.441 15.2833 128.562 15.266 128.441 15.5254C127.939 15.7849 128.043 16.0962 127.818 16.6324C127.818 16.8226 127.628 16.9437 127.576 17.0821C127.479 17.6769 127.427 18.2782 127.42 18.8809C127.42 19.4343 127.282 20.0743 127.264 20.6104C127.178 22.9973 126.953 24.9863 126.97 26.958C126.97 29.8811 126.676 33.0289 126.538 35.9519C126.538 37.8891 126.659 40.2586 126.642 41.6423C126.642 42.0228 126.469 42.3687 126.486 42.7492C126.472 43.366 126.658 43.9707 127.017 44.4727C127.376 44.9748 127.887 45.3471 128.475 45.5339C128.963 45.47 129.425 45.2757 129.811 44.9712C130.198 44.6668 130.495 44.2636 130.672 43.8043C130.672 42.7319 130.672 41.8671 130.672 40.5699C130.672 39.2727 130.672 37.2145 130.672 35.9346C130.775 34.0321 130.845 31.5242 130.966 29.587C131.087 27.3731 130.966 25.1939 131.104 23.2221C131.104 22.2881 131.104 21.3542 131.104 20.5413C131.104 20.4029 131.208 20.178 131.208 20.0397C131.208 19.9013 131.069 19.6765 131.052 19.4862C131.189 18.4486 131.224 17.4001 131.156 16.3557C131.156 16.1827 130.897 16.1135 130.81 15.906C130.724 15.6984 130.81 15.3698 130.62 15.1276C130.43 14.8855 130.17 15.4044 130.032 15.3525C129.893 15.3006 129.496 14.4185 129.202 14.8509Z" fill="white"/>
<path fill-rule="evenodd" clip-rule="evenodd" d="M124.895 41.6769C124.532 41.331 124.48 40.8986 124.203 40.5008C123.542 40.3565 122.858 40.3565 122.197 40.5008C122.003 40.7463 121.756 40.9442 121.474 41.0791C121.192 41.2141 120.883 41.2825 120.571 41.2791C120.208 41.0369 119.827 40.9159 119.429 40.6391C118.962 37.7334 120.087 34.4991 119.879 31.6625C119.79 31.0906 119.755 30.5115 119.775 29.9329C120.038 28.605 119.771 27.2271 119.031 26.0933C118.618 25.3699 118.079 24.7257 117.44 24.1907C116.213 23.331 114.794 22.7847 113.307 22.5995C111.47 22.4174 109.618 22.7529 107.962 23.568C107.806 24.1388 107.288 24.3464 107.045 24.8307C107.278 25.3293 107.458 25.851 107.582 26.3873C107.929 26.6608 108.299 26.9039 108.689 27.1137C109.069 27.2002 109.155 26.9926 109.432 27.1137C110.636 26.478 112.011 26.2418 113.358 26.4392C114.166 26.7842 114.891 27.2971 115.486 27.9439C115.891 29.5479 116.008 31.211 115.832 32.856C113.538 32.804 111.285 33.4625 109.38 34.7412C108.711 35.3339 108.18 36.0659 107.824 36.8859C107.193 37.9073 106.764 39.0406 106.561 40.224C106.382 41.704 106.685 43.2025 107.426 44.4961C107.772 44.8939 108.239 45.0669 108.498 45.4647C110.228 45.8452 111.456 46.9348 113.41 46.6927C114.296 46.4613 115.122 46.0425 115.832 45.4647C116.163 45.3207 116.486 45.1591 116.8 44.9804C117.094 44.7556 117.285 44.4269 117.682 44.3577C118.08 44.2886 118.72 44.6518 119.135 44.7901C120.554 45.2571 122.335 45.4993 123.096 44.4442C123.438 44.3497 123.756 44.1847 124.03 43.9599C124.411 43.6209 124.692 43.1843 124.843 42.6973C124.843 42.3514 124.739 41.9882 124.843 41.6423M115.313 41.0542C115.088 41.2964 114.725 41.1926 114.431 41.3483C114.137 41.5039 114.137 41.6769 113.946 41.8325C113.756 41.9882 113.03 42.4033 112.632 42.6973C111.831 42.5868 111.067 42.2907 110.401 41.8325C110.238 41.3264 110.238 40.782 110.401 40.2759C110.626 39.6669 110.922 39.0864 111.283 38.5463C111.729 38.0048 112.334 37.6175 113.012 37.4394C113.761 37.0579 114.594 36.8734 115.434 36.9032C115.208 38.2989 115.179 39.7196 115.347 41.1234" fill="white"/>
<path fill-rule="evenodd" clip-rule="evenodd" d="M81.4475 26.664C81.1016 26.664 80.9459 26.2835 80.6692 26.1451C80.2887 26.2835 79.9947 25.9203 79.6488 25.903C79.137 26.0761 78.6577 26.3333 78.2305 26.664C78.236 26.8094 78.1977 26.953 78.1206 27.0764C78.0435 27.1997 77.9312 27.2971 77.7981 27.3558C77.8248 27.6479 77.7381 27.9389 77.5559 28.1687C77.7289 28.3417 77.7981 28.9471 77.5559 29.1027C77.7116 29.1027 77.7116 29.1027 77.6943 29.293C77.1581 32.3371 77.4003 36.0903 77.0198 39.2035C77.1063 39.3246 77.1581 39.2035 77.21 39.3938C77.4106 40.1208 77.5153 40.8709 77.5214 41.625C77.5214 42.7838 77.0198 43.908 77.5214 44.6863C77.9365 44.6863 77.8154 45.309 78.0575 45.5511C78.2651 45.5511 78.611 45.4647 78.6802 45.7933C78.8185 45.7933 78.905 45.4301 79.078 45.5511C79.1126 45.7107 79.1126 45.8759 79.078 46.0354C79.2337 46.0354 79.2336 45.8971 79.4066 46.0354C79.5796 46.1738 79.2682 45.6895 79.5104 45.603C79.7525 45.5166 79.9774 45.1706 80.2887 45.1187C81.9318 42.2303 80.6519 37.9409 81.2573 34.1012C82.6583 34.1012 82.9869 32.7695 83.4884 31.6279C84.0391 31.0861 84.7734 30.771 85.5456 30.7454C86.3178 30.7198 87.0713 30.9854 87.6568 31.4896C87.798 31.7446 87.96 31.9876 88.1411 32.216C88.314 33.0981 88.7118 34.0494 88.8675 35.1736C89.1269 36.9032 89.0577 38.9268 89.2653 40.4661C89.2577 40.9692 89.2231 41.4715 89.1615 41.9709C89.2036 42.4986 89.3569 43.0114 89.6112 43.4756C89.8207 43.8431 90.1351 44.1397 90.514 44.3276C90.8929 44.5155 91.3193 44.5862 91.7386 44.5307C92.171 44.1329 92.9493 44.0637 93.0012 43.2681C93.0012 43.0951 93.2606 43.2681 93.2952 43.1297C93.3298 42.8977 93.3937 42.6711 93.4855 42.4552C93.4855 41.3828 93.1915 40.5526 93.1396 39.3419C93.1396 38.4944 93.1396 37.6123 93.1396 36.7302C93.1396 35.5022 92.7245 33.7899 92.8109 33.271C93.3125 32.8386 93.5893 32.2852 94.16 31.9047C95.3469 31.3664 96.6776 31.2327 97.9478 31.5242C98.3999 31.7075 98.8247 31.952 99.2104 32.2506C99.4098 32.6139 99.5554 33.0043 99.6428 33.4094C99.8875 35.2151 100.009 37.0354 100.006 38.8576C100.006 40.9158 99.4872 43.2508 100.335 44.5307C100.686 44.7252 101.027 44.9388 101.355 45.1706C101.644 45.0944 101.948 45.0944 102.237 45.1706C102.237 44.9112 102.704 44.9112 102.912 44.8766C103.188 44.5307 103.586 44.3404 103.777 43.9599C104.058 43.0009 104.141 41.9944 104.019 41.0023C104.081 37.6551 103.896 34.3079 103.465 30.988C103.327 30.7631 103.102 30.6248 103.119 30.2616C103.137 29.8983 102.704 30.0021 102.687 29.6735C101.129 28.1727 99.0825 27.2836 96.9224 27.1692C94.7623 27.0549 92.6333 27.7229 90.9257 29.0508C89.6791 27.7846 88.0727 26.9331 86.325 26.6121C84.7356 26.4238 83.1289 26.7707 81.7589 27.598C81.5823 27.2908 81.454 26.9583 81.3784 26.6121" fill="white"/>
<path fill-rule="evenodd" clip-rule="evenodd" d="M63.2866 27.4077C63.304 27.4522 63.304 27.5016 63.2866 27.5461C62.8369 27.5461 62.6467 27.7537 62.4218 27.6499C62.0868 28.0788 61.7806 28.5295 61.5052 28.999C61.5335 29.1278 61.5293 29.2616 61.4931 29.3884C61.4569 29.5152 61.3897 29.631 61.2976 29.7254C61.4589 30.5568 61.5112 31.4057 61.4533 32.2506C61.6361 33.7486 61.7343 35.2558 61.7473 36.7648C61.7884 37.7005 61.9334 38.6286 62.1797 39.5322C62.1662 40.6539 62.0911 41.7741 61.9549 42.8876C61.9549 42.8876 61.9549 42.8011 61.8511 42.7838C61.7473 42.7665 61.7473 43.147 61.8511 43.32C61.9549 43.493 62.0586 43.1989 62.0932 43.32C62.2662 43.8562 62.6294 43.908 62.7332 44.4788C62.9061 44.4788 62.9407 44.3405 63.1137 44.3405C63.3558 44.7901 63.7882 44.5307 64.1341 44.8247C64.3417 44.8247 64.3763 44.5653 64.5665 44.4788C64.7568 44.3923 64.5665 44.6691 64.7568 44.6345C64.9989 44.1848 65.0854 43.5794 65.4486 43.2681C65.846 40.6995 65.9447 38.0935 65.7427 35.5022C66.1232 34.8796 66.6075 34.4126 66.9015 33.7726C67.8528 33.1327 68.4235 32.3198 69.5305 32.0431C70.1358 31.8874 71.0006 32.0431 71.606 31.8009C72.8513 32.1468 74.6328 31.9739 74.9614 30.5902C75.2208 30.5902 75.1862 30.227 75.3938 30.1578C75.2658 30.0101 75.1661 29.84 75.0997 29.6562C75.2554 29.5006 75.0997 29.293 75.0997 29.0336C74.9396 28.9094 74.8194 28.741 74.7538 28.5493C73.6988 27.598 71.5368 27.7191 69.8072 27.9612C68.6479 28.0357 67.5196 28.3665 66.5037 28.9298C66.1059 29.1892 65.7773 29.6043 65.3449 29.6562C65.5351 29.0854 65.0681 28.4974 64.9643 27.9266C64.3763 27.9266 63.9266 27.4596 63.2348 27.4077" fill="white"/>
<path fill-rule="evenodd" clip-rule="evenodd" d="M58.0979 33.8072C57.6369 32.0827 56.5441 30.5947 55.0365 29.6389C54.2496 29.0316 53.3412 28.601 52.3729 28.3763C50.966 28.1353 49.5228 28.2181 48.1527 28.6185C46.6409 28.7999 45.2095 29.3988 44.019 30.3481C42.7359 31.4011 41.8362 32.848 41.4592 34.4645C41.0385 36.9362 41.4459 39.4777 42.618 41.6942C42.7391 41.8671 42.9293 42.0055 43.0504 42.1785C43.6039 42.9741 44.1228 43.9081 44.78 44.6518C45.7486 45.1534 46.5096 45.8106 47.4609 46.3814C47.7668 46.3743 48.0679 46.4586 48.3257 46.6235C48.637 46.6235 48.7235 46.3468 49.0521 46.5197C49.8412 46.1704 50.6727 45.9262 51.5254 45.7933C52.4869 45.6454 53.4313 45.402 54.3446 45.0669C54.6517 44.8911 54.9464 44.6946 55.2267 44.4788C56.4774 43.5477 57.3935 42.2373 57.8384 40.7429C58.199 39.852 58.4601 38.9239 58.6167 37.9756C58.7161 36.5544 58.5698 35.1268 58.1843 33.7554M54.4484 37.3875C54.3281 38.6641 53.9137 39.8955 53.2377 40.985C52.1874 41.623 51.0032 42.0079 49.7785 42.1093C49.6443 42.1588 49.5251 42.2422 49.4326 42.3514C48.7926 42.4898 47.9451 41.919 47.3398 41.4174C46.5597 40.6571 46.0238 39.6817 45.8005 38.6155C45.3499 37.5218 45.1948 36.3289 45.3508 35.1563L45.7486 34.9142C46.3885 32.7176 49.2077 32.4063 51.4735 32.2852C52.321 32.9079 53.5836 33.4786 54.0852 34.4645C54.4186 35.4308 54.5539 36.4543 54.483 37.474" fill="white"/>
</svg>
