<svg width="71" height="69" viewBox="0 0 71 69" fill="none" xmlns="http://www.w3.org/2000/svg">
    <path d="M3.94041 53.3545C3.56541 53.3545 3.23468 53.3988 2.94822 53.4873C2.66697 53.5758 2.42999 53.7008 2.23729 53.8623C2.04458 54.0238 1.89874 54.2191 1.79979 54.4482C1.70604 54.6722 1.65916 54.9196 1.65916 55.1904C1.65916 55.3831 1.6852 55.5732 1.73729 55.7607C1.78937 55.9482 1.90135 56.1409 2.07322 56.3389C2.2451 56.5316 2.49249 56.7321 2.81541 56.9404C3.14354 57.1488 3.58364 57.3727 4.13572 57.6123C4.77114 57.904 5.3076 58.1774 5.7451 58.4326C6.18781 58.6878 6.54718 58.9587 6.82322 59.2451C7.09926 59.5316 7.29718 59.8545 7.41697 60.2139C7.54197 60.568 7.60447 60.9925 7.60447 61.4873C7.60447 61.8623 7.52895 62.2373 7.37791 62.6123C7.22687 62.9873 6.9977 63.3232 6.69041 63.6201C6.38833 63.917 6.00551 64.1592 5.54197 64.3467C5.08364 64.529 4.54458 64.6201 3.92479 64.6201C3.23729 64.6201 2.65916 64.555 2.19041 64.4248C1.72166 64.2998 1.34406 64.1357 1.0576 63.9326C0.776348 63.7295 0.573223 63.5003 0.448223 63.2451C0.323223 62.9847 0.260723 62.7243 0.260723 62.4639C0.260723 62.292 0.286765 62.1331 0.338848 61.9873C0.390931 61.8363 0.466452 61.706 0.565411 61.5967C0.669577 61.4821 0.794577 61.3935 0.940411 61.331C1.09145 61.2633 1.26072 61.2295 1.44822 61.2295C1.6201 61.2295 1.77635 61.2607 1.91697 61.3232C2.0576 61.3805 2.17479 61.4613 2.26854 61.5654C2.36749 61.6644 2.44301 61.7842 2.4951 61.9248C2.55239 62.0602 2.58104 62.2087 2.58104 62.3701C2.58104 62.7399 2.47426 63.0185 2.26072 63.206C2.04718 63.3935 1.77114 63.4873 1.4326 63.4873V63.5185C1.46906 63.5602 1.53937 63.6175 1.64354 63.6904C1.75291 63.7633 1.90135 63.8363 2.08885 63.9092C2.28156 63.9821 2.51593 64.0472 2.79197 64.1045C3.07322 64.1566 3.40395 64.1826 3.78416 64.1826C4.09666 64.1826 4.40656 64.1409 4.71385 64.0576C5.02635 63.9743 5.30239 63.8545 5.54197 63.6982C5.78676 63.542 5.98468 63.3519 6.13572 63.1279C6.28676 62.904 6.36229 62.6514 6.36229 62.3701C6.36229 62.1305 6.31801 61.9066 6.22947 61.6982C6.14093 61.4899 5.97426 61.279 5.72947 61.0654C5.48468 60.8467 5.14354 60.6149 4.70604 60.3701C4.27374 60.1201 3.70864 59.8389 3.01072 59.5264C2.4951 59.3076 2.07062 59.068 1.73729 58.8076C1.40916 58.542 1.14874 58.2633 0.956036 57.9717C0.768536 57.6748 0.638327 57.3675 0.565411 57.0498C0.492494 56.7269 0.456036 56.3962 0.456036 56.0576C0.456036 55.6305 0.534161 55.2269 0.690411 54.8467C0.846661 54.4665 1.07322 54.1357 1.3701 53.8545C1.66697 53.568 2.03156 53.3415 2.46385 53.1748C2.90135 53.0081 3.39874 52.9248 3.95604 52.9248C4.49249 52.9248 4.95864 52.9873 5.35447 53.1123C5.75551 53.2373 6.08624 53.404 6.34666 53.6123C6.60708 53.8154 6.80239 54.055 6.9326 54.331C7.06281 54.6019 7.12791 54.8857 7.12791 55.1826C7.12791 55.3389 7.10187 55.4899 7.04979 55.6357C6.9977 55.7764 6.92218 55.9014 6.82322 56.0107C6.72426 56.1149 6.60187 56.2008 6.45604 56.2685C6.3102 56.331 6.14354 56.3623 5.95604 56.3623C5.78416 56.3623 5.62791 56.3337 5.48729 56.2764C5.34666 56.2191 5.22426 56.1409 5.1201 56.042C5.02114 55.943 4.94301 55.8258 4.88572 55.6904C4.83364 55.555 4.8076 55.4066 4.8076 55.2451C4.8076 55.0628 4.83885 54.9014 4.90135 54.7607C4.96385 54.6149 5.04718 54.4951 5.15135 54.4014C5.26072 54.3024 5.38833 54.2295 5.53416 54.1826C5.67999 54.1305 5.83624 54.1045 6.00291 54.1045V54.0732C5.97166 54.0368 5.90916 53.9795 5.81541 53.9014C5.72166 53.818 5.59145 53.7373 5.42479 53.6592C5.25812 53.5758 5.05239 53.5055 4.8076 53.4482C4.56281 53.3857 4.27374 53.3545 3.94041 53.3545ZM8.51854 53.8154V53.4951L10.1513 53.3232L11.2529 53.0342L11.3935 53.2607V63.9482L12.1982 64.0264V64.3467H8.67479V64.0264L9.47947 63.9482V53.8154H8.51854ZM13.1123 57.1279V56.8076L14.7451 56.6357L15.8467 56.3467L15.9873 56.5732V63.9482L16.792 64.0264V64.3467H13.2685V64.0264L14.0732 63.9482V57.1279H13.1123ZM13.9638 53.5732C13.9638 53.4274 13.9899 53.292 14.042 53.167C14.0993 53.042 14.1748 52.9326 14.2685 52.8389C14.3623 52.7451 14.4717 52.6722 14.5967 52.6201C14.7217 52.568 14.8545 52.542 14.9951 52.542C15.1357 52.542 15.2685 52.5706 15.3935 52.6279C15.5185 52.68 15.6279 52.7529 15.7217 52.8467C15.8206 52.9404 15.8961 53.0498 15.9482 53.1748C16.0055 53.2998 16.0342 53.4326 16.0342 53.5732C16.0342 53.7139 16.0055 53.8467 15.9482 53.9717C15.8961 54.0967 15.8232 54.2087 15.7295 54.3076C15.6357 54.4014 15.5263 54.4769 15.4013 54.5342C15.2763 54.5863 15.1409 54.6123 14.9951 54.6123C14.8493 54.6123 14.7138 54.5863 14.5888 54.5342C14.4638 54.4769 14.3545 54.4014 14.2607 54.3076C14.167 54.2139 14.0941 54.1045 14.042 53.9795C13.9899 53.8545 13.9638 53.7191 13.9638 53.5732ZM17.5654 53.4951L19.1982 53.3232L20.2998 53.0342L20.4404 53.2607V63.9482L21.2451 64.0264V64.3467H17.7217V64.0264L18.5263 63.9482V53.7998L17.581 53.8154L17.5654 53.4951ZM20.4404 60.2685V60.0732L23.4795 56.9092L22.6045 56.8232V56.5029H24.9404V56.8232L24.0576 56.9092L21.8154 59.292L24.956 63.9482L25.7685 64.0264V64.3467H22.1904V64.0264L22.8232 63.9482L20.4404 60.2685ZM26.0029 53.8154V53.4951L27.6357 53.3232L28.7373 53.0342L28.8467 53.2607V57.6279H28.8779C29.4977 56.7217 30.2998 56.2685 31.2842 56.2685C31.4717 56.2685 31.6513 56.2842 31.8232 56.3154C31.9951 56.3467 32.1852 56.417 32.3935 56.5264C32.6019 56.6357 32.7816 56.779 32.9326 56.956C33.0836 57.1331 33.2112 57.3857 33.3154 57.7139C33.4196 58.042 33.4717 58.4248 33.4717 58.8623V63.9482L34.2685 64.0264V64.3467H30.7529V64.0264L31.5498 63.9482V58.6357C31.5498 57.5264 31.193 56.9717 30.4795 56.9717C30.0107 56.9717 29.6253 57.1852 29.3232 57.6123C29.0263 58.0394 28.8779 58.5993 28.8779 59.292V63.9482L29.6826 64.0264V64.3467H26.1592V64.0264L26.9638 63.9482V53.8154H26.0029ZM35.0888 67.0576C35.0888 66.7503 35.18 66.4925 35.3623 66.2842C35.5498 66.0758 35.7842 65.9717 36.0654 65.9717C36.3675 65.9717 36.5941 66.0654 36.7451 66.2529C36.9013 66.4404 36.9795 66.6722 36.9795 66.9482C36.9795 67.0524 36.9456 67.1774 36.8779 67.3232C36.8154 67.4691 36.7321 67.5784 36.6279 67.6514V67.6826C36.8102 67.6774 36.9821 67.6123 37.1435 67.4873C37.305 67.3675 37.4508 67.193 37.581 66.9639C37.7112 66.7347 37.8102 66.542 37.8779 66.3857C37.9456 66.2295 38.0237 66.0342 38.1123 65.7998L38.4638 64.6123L35.1435 56.9092L34.3701 56.8232V56.5029H38.0654V56.8232L37.2217 56.9092L39.2529 62.0029L40.7842 56.9092L39.9248 56.8232V56.5029H42.0498V56.8232L41.2373 56.9092L38.6435 65.6904C38.4612 66.2217 38.2737 66.6644 38.081 67.0185C37.8883 67.3727 37.693 67.6305 37.4951 67.792C37.3024 67.9587 37.1227 68.0706 36.956 68.1279C36.7894 68.1852 36.6045 68.2139 36.4013 68.2139C36.0107 68.2139 35.693 68.1045 35.4482 67.8857C35.2086 67.667 35.0888 67.3909 35.0888 67.0576ZM42.0498 56.8389V56.5029H43.3779V54.7764L44.0498 54.706L45.1513 54.417L45.2998 54.6435V56.5029H47.0107V56.8389L45.2998 56.9092V62.4092C45.2998 62.7269 45.3362 62.9925 45.4092 63.206C45.4873 63.4144 45.5862 63.5576 45.706 63.6357C45.831 63.7139 45.93 63.7633 46.0029 63.7842C46.081 63.805 46.1618 63.8154 46.2451 63.8154C46.4066 63.8154 46.5602 63.7816 46.706 63.7139C46.8571 63.6409 46.9925 63.5368 47.1123 63.4014C47.2373 63.2659 47.3388 63.1435 47.417 63.0342C47.4951 62.9196 47.5836 62.7816 47.6826 62.6201L48.0185 62.8232C47.7425 63.2816 47.5029 63.6149 47.2998 63.8232C46.805 64.3284 46.2347 64.581 45.5888 64.581C45.3441 64.581 45.1253 64.5628 44.9326 64.5264C44.7451 64.4951 44.5498 64.4248 44.3467 64.3154C44.1435 64.206 43.9743 64.0602 43.8388 63.8779C43.7034 63.6904 43.5915 63.4352 43.5029 63.1123C43.4196 62.7842 43.3779 62.4014 43.3779 61.9639V56.9092L42.0498 56.8389ZM47.9404 56.8389V56.5029H49.2685V54.7764L49.9404 54.706L51.042 54.417L51.1904 54.6435V56.5029H52.9013V56.8389L51.1904 56.9092V62.4092C51.1904 62.7269 51.2269 62.9925 51.2998 63.206C51.3779 63.4144 51.4769 63.5576 51.5967 63.6357C51.7217 63.7139 51.8206 63.7633 51.8935 63.7842C51.9717 63.805 52.0524 63.8154 52.1357 63.8154C52.2972 63.8154 52.4508 63.7816 52.5967 63.7139C52.7477 63.6409 52.8831 63.5368 53.0029 63.4014C53.1279 63.2659 53.2295 63.1435 53.3076 63.0342C53.3857 62.9196 53.4743 62.7816 53.5732 62.6201L53.9092 62.8232C53.6331 63.2816 53.3935 63.6149 53.1904 63.8232C52.6956 64.3284 52.1253 64.581 51.4795 64.581C51.2347 64.581 51.0159 64.5628 50.8232 64.5264C50.6357 64.4951 50.4404 64.4248 50.2373 64.3154C50.0342 64.206 49.8649 64.0602 49.7295 63.8779C49.5941 63.6904 49.4821 63.4352 49.3935 63.1123C49.3102 62.7842 49.2685 62.4014 49.2685 61.9639V56.9092L47.9404 56.8389ZM54.4248 60.4248C54.4248 60.0185 54.4638 59.6227 54.542 59.2373C54.6201 58.8467 54.7477 58.4717 54.9248 58.1123C55.1019 57.7529 55.318 57.4378 55.5732 57.167C55.8284 56.8962 56.1435 56.68 56.5185 56.5185C56.8987 56.3519 57.318 56.2685 57.7763 56.2685C58.2086 56.2685 58.5967 56.331 58.9404 56.456C59.2842 56.5758 59.5706 56.7451 59.7998 56.9639C60.029 57.1826 60.2191 57.4508 60.3701 57.7685C60.5211 58.081 60.6279 58.4222 60.6904 58.792C60.7581 59.1566 60.792 59.5576 60.792 59.9951L60.581 60.1904H56.4248V60.667C56.4248 62.9378 57.0706 64.0732 58.3623 64.0732C59.279 64.0732 60.0107 63.6149 60.5576 62.6982L60.8623 62.8857C60.1904 64.0159 59.2347 64.581 57.9951 64.581C56.7972 64.581 55.9013 64.2113 55.3076 63.4717C54.7191 62.7321 54.4248 61.7165 54.4248 60.4248ZM56.4248 59.8389L58.9482 59.7373C58.9638 59.4717 58.9717 59.2165 58.9717 58.9717C58.9717 58.2165 58.8805 57.6357 58.6982 57.2295C58.5211 56.8232 58.2243 56.6201 57.8076 56.6201C57.5576 56.6201 57.3415 56.7034 57.1592 56.8701C56.9821 57.0316 56.8441 57.2659 56.7451 57.5732C56.6461 57.8805 56.5706 58.2165 56.5185 58.581C56.4717 58.9404 56.4404 59.3597 56.4248 59.8389ZM61.9014 56.8076L63.5342 56.6357L64.6357 56.3467L64.7764 56.5732L64.7451 57.6279H64.7764C65.3961 56.7217 66.1982 56.2685 67.1826 56.2685C67.3701 56.2685 67.5498 56.2842 67.7217 56.3154C67.8935 56.3467 68.0836 56.417 68.292 56.5264C68.5003 56.6357 68.68 56.779 68.831 56.956C68.9821 57.1331 69.1097 57.3857 69.2139 57.7139C69.318 58.042 69.3701 58.4248 69.3701 58.8623V63.9482L70.167 64.0264V64.3467H66.6514V64.0264L67.4482 63.9482V58.6357C67.4482 57.5264 67.0915 56.9717 66.3779 56.9717C65.9092 56.9717 65.5237 57.1852 65.2217 57.6123C64.9248 58.0394 64.7764 58.5993 64.7764 59.292V63.9482L65.581 64.0264V64.3467H62.0576V64.0264L62.8623 63.9482V57.1123L61.917 57.1279L61.9014 56.8076Z" fill="black"/>
    <g clip-path="url(#clip0_0_1)">
    <path d="M64.6245 35.4146C64.7177 34.7725 64.5934 34.0387 64.873 33.4271C65.2148 32.6627 66.0536 32.2346 66.4885 31.5619C66.9545 30.8587 67.0787 29.7273 66.5506 29.0546C67.7311 27.9844 68.8495 26.7308 69.1913 25.1713C69.3777 24.2846 69.1602 23.5202 68.8806 22.664C68.6942 22.1442 68.7563 21.9913 69.0981 21.5938C69.3777 21.2575 69.5641 20.7988 69.4087 20.3707C69.1291 19.5757 68.135 19.3311 67.3583 19.3311C66.7991 19.3311 66.2399 19.4534 65.6808 19.5452C64.9662 19.6369 64.2517 19.7592 63.5372 19.8509C60.8655 20.2484 58.1937 20.6459 55.522 21.0434C52.5086 21.5021 49.4641 21.9913 46.4506 22.5111C46.2332 22.5417 46.14 22.6946 46.1089 22.8475C45.8914 22.6946 45.674 22.5723 45.4565 22.45C44.7109 22.0219 43.8721 23.0615 44.6177 23.4896C47.4137 25.1713 49.899 27.3117 51.9494 29.819C52.9746 31.1033 53.9066 32.4792 54.6832 33.9469C55.4288 35.2923 56.1744 36.5766 57.2617 37.7079C57.9141 38.3806 59.2811 39.4202 58.784 40.4904C58.5665 40.9796 59.0947 41.4383 59.5607 41.2854C62.1702 40.4293 64.1896 38.1054 64.6245 35.4146Z" fill="#662D91"/>
    <path d="M28.1216 15.0189C26.7857 15.1718 25.4498 15.3247 24.114 15.5082C24.2382 15.3247 24.2693 15.0495 24.0518 14.8966C22.2811 13.6124 20.5103 12.2976 18.8327 10.9216C17.2794 9.63738 15.8192 8.23083 14.3902 6.82429C11.7495 4.22524 8.92248 1.6262 5.16344 0.831196C4.88384 0.770042 4.63531 0.984081 4.51105 1.19812C3.79652 2.51293 5.16344 3.52197 5.47411 4.71448C5.72264 5.66236 4.35571 5.78467 3.73438 6.05987C3.05092 6.36564 2.33639 6.9466 2.27426 7.7416C2.21213 8.16968 2.39853 8.5366 2.67812 8.84237C2.80239 8.99526 2.92666 9.05641 2.86452 9.23987C2.80239 9.42334 2.55386 9.6068 2.42959 9.72911C1.80826 10.2489 1.218 10.8299 0.845204 11.5637C0.503473 12.2058 0.410274 13.0008 0.752005 13.6735C1.218 14.5297 2.49173 14.7437 2.61599 15.7834C2.74026 16.7618 2.18106 17.7097 1.74613 18.5659C1.28013 19.5138 0.845204 20.5228 1.06267 21.6236C1.1248 22.0211 1.4976 22.2351 1.8704 22.0822C8.48755 19.8195 15.3532 18.1684 22.2811 17.0676C24.2693 16.7618 26.2576 16.4866 28.2769 16.2726C29.0846 16.2114 28.9293 14.9578 28.1216 15.0189Z" fill="#662D91"/>
    <path d="M50.6758 25.049C51.3904 21.9607 50.4273 18.6584 48.5944 16.1205C46.4508 13.124 43.1888 11.0448 39.8958 9.48533C36.9134 8.07879 33.6203 7.10032 30.2962 7.06974C27.1275 7.03917 24.0208 7.9259 21.5044 9.91341C19.1744 11.7786 17.4037 14.5 17.2483 17.4965C17.093 20.9211 18.957 24.1011 21.1006 26.6696C23.3063 29.3298 26.1023 31.5314 29.3642 32.8462C32.4088 34.0387 35.7018 34.3444 38.8706 33.5189C39.523 33.3354 40.2064 33.1214 40.8278 32.8462C41.9151 32.6015 42.9713 32.2958 43.9965 31.8983C47.1964 30.6752 49.8992 28.4431 50.6758 25.049Z" fill="#7F3F98"/>
    <path d="M18.833 21.4715C18.9883 18.475 20.7591 15.723 23.0891 13.8884C25.5744 11.9009 28.681 11.0142 31.8809 11.0448C35.205 11.0753 38.498 12.0538 41.4804 13.4603C44.7734 15.0198 48.0354 17.1296 50.179 20.0955C50.3654 20.3707 50.5518 20.6459 50.7382 20.9211C50.3965 19.2088 49.6509 17.5577 48.6257 16.1511C46.4821 13.1546 43.2201 11.0753 39.9271 9.5159C36.9447 8.10936 33.6517 7.1309 30.3275 7.10032C27.1588 7.06974 24.0521 7.95648 21.5357 9.94398C19.2057 11.8092 17.435 14.5305 17.2796 17.5271C17.1864 19.7286 17.901 21.8079 19.0194 23.7036C18.864 22.9698 18.8019 22.2359 18.833 21.4715Z" fill="#A358C6"/>
    <path d="M50.6758 25.049C51.2661 22.5417 50.7379 19.8815 49.5263 17.6188C49.7438 18.8725 49.7127 20.1873 49.4331 21.4409C48.6565 24.835 45.9537 27.0671 42.7538 28.2902C41.7287 28.6877 40.6413 28.9935 39.5851 29.2381C38.9327 29.5133 38.2803 29.7273 37.6279 29.9108C34.4591 30.7363 31.1661 30.4306 28.1216 29.2381C24.8906 27.9538 22.0636 25.7217 19.8579 23.0615C18.9259 21.9302 18.056 20.7071 17.3726 19.3617C17.8075 22.0525 19.3608 24.5598 21.1005 26.6696C23.3062 29.3298 26.1022 31.5313 29.3642 32.8462C32.4087 34.0387 35.7018 34.3444 38.8705 33.5189C39.5229 33.3354 40.2064 33.1214 40.8277 32.8462C41.9151 32.6015 42.9713 32.2958 43.9965 31.8983C47.1964 30.6752 49.8991 28.4431 50.6758 25.049Z" fill="#662D91"/>
    <path d="M35.4222 14.2859C33.3718 13.3075 30.7933 13.4909 28.6497 14.0107C27.4071 14.3165 26.2887 14.7446 25.2013 15.4173C24.6732 15.7536 24.2383 16.1817 23.8034 16.6098C23.3374 17.0684 23.0578 17.6188 22.7782 18.1998C22.3122 19.0865 23.5859 20.0038 24.3315 19.3923C24.7353 19.0559 25.1703 18.8113 25.5741 18.475C25.978 18.1386 26.3819 17.8328 26.8168 17.4965C27.5935 16.9155 28.4633 16.3346 29.3642 15.9065C31.2904 14.9892 33.3097 14.8975 35.4222 14.8669C35.6707 14.8669 35.6707 14.4082 35.4222 14.2859Z" fill="#A358C6"/>
    <path d="M33.7757 19.3006C33.4651 19.0559 33.1233 18.9948 32.7505 18.8113C32.2845 18.5973 31.9428 18.4138 31.3836 18.3527C30.3895 18.2304 29.4264 18.2304 28.4634 18.5055C27.5624 18.7502 26.7236 19.0865 25.947 19.5452C25.0771 20.0344 24.5179 20.7377 24.0209 21.5633C23.8345 21.869 23.7723 22.2359 24.0209 22.5417C24.2073 22.8169 24.6733 22.9698 24.9839 22.8169C25.6674 22.4806 26.413 22.2054 27.0964 21.869C27.811 21.5021 28.5255 21.1963 29.3022 20.9517C29.9545 20.7682 30.7312 20.4931 31.4768 20.3707C31.8807 20.3096 32.1913 20.1873 32.5952 20.065C32.968 19.9427 33.3408 19.9732 33.7136 19.8815C33.9621 19.7898 33.9621 19.4534 33.7757 19.3006Z" fill="#A358C6"/>
    <path d="M62.854 24.0094C62.7608 23.9482 62.6366 23.8565 62.5123 23.7954C61.6114 22.6334 59.4367 22.9698 58.163 23.0615C56.6718 23.1532 55.3049 23.5813 53.9069 24.0706C53.4098 24.254 53.1302 24.835 53.2545 25.3548C53.4098 25.9052 53.8758 26.1804 54.435 26.1498C55.8019 26.1192 57.1689 26.1498 58.5358 26.0581C59.7474 25.9969 61.5182 26.2415 62.4502 25.3242C62.5434 25.2936 62.6055 25.2631 62.6987 25.2019C63.1336 25.0184 63.3511 24.3457 62.854 24.0094Z" fill="#7F3F98"/>
    <path d="M63.1647 28.7183C62.7298 27.8315 61.4871 27.6481 60.6173 27.5563C59.6542 27.4646 58.6911 27.5258 57.7281 27.5563C57.231 27.5563 56.8271 28.1067 56.8271 28.5654C56.8271 29.1158 57.1999 29.4521 57.7281 29.5744C58.5979 29.7884 59.4678 30.0025 60.3687 30.0942C61.1765 30.1859 62.4812 30.2777 63.0404 29.5133C63.1958 29.2992 63.289 28.9934 63.1647 28.7183Z" fill="#7F3F98"/>
    <path d="M13.4581 10.6778C13.3339 10.3109 12.9611 9.97456 12.7436 9.66879C12.433 9.24071 11.8738 8.93494 11.4078 8.69033C10.5068 8.23167 9.57484 7.9259 8.61178 7.62013C8.11471 7.46725 7.58658 7.58955 7.30698 8.04821C7.05845 8.47629 7.12059 9.1184 7.55552 9.3936C8.45644 9.94398 9.35737 10.4944 10.3204 10.9224C10.7864 11.1365 11.3456 11.3199 11.8738 11.3199C12.3087 11.3199 12.8057 11.3811 13.2096 11.2282C13.4581 11.1671 13.5513 10.9224 13.4581 10.6778Z" fill="#7F3F98"/>
    <path d="M12.6507 13.4298C12.6507 12.8794 12.1226 12.6042 11.6877 12.3596C11.1595 12.0844 10.5693 11.7786 9.94793 11.6563C8.7674 11.4423 7.49368 11.5034 6.28209 11.5646C5.59863 11.5951 5.10156 12.2678 5.10156 12.8794C5.10156 13.4909 5.56756 14.1942 6.28209 14.2248C7.43155 14.2553 8.61207 14.4388 9.76153 14.4388C10.3518 14.4388 10.9421 14.3471 11.5323 14.2553C11.9983 14.1636 12.6507 14.0413 12.6507 13.4298Z" fill="#7F3F98"/>
    </g>
    <defs>
    <clipPath id="clip0_0_1">
    <rect width="68.9365" height="40.5145" fill="white" transform="translate(0.534668 0.832035)"/>
    </clipPath>
    </defs>
    </svg>
    