<svg width="178" height="37" viewBox="0 0 178 37" fill="none" xmlns="http://www.w3.org/2000/svg">
<g clip-path="url(#clip0_2409_1954)">
<path d="M16.6292 19.3432C10.2542 22.714 2.90982 20.6393 0 12.8342C3.15344 10.7461 6.99856 9.76516 10.5779 11.0393C11.0447 13.5893 12.4349 15.8949 14.423 17.6612C15.4026 18.5325 15.6207 18.5983 16.6292 19.3432Z" fill="#7BE3C4"/>
<path d="M35.1752 12.8342C33.9247 16.1864 31.6503 19.0128 28.2754 20.2431C27.3861 20.5701 27.9841 20.4993 26.4338 19.4173C24.1611 17.8246 21.2445 17.1656 19.1166 17.2297C18.0297 17.2634 18.3483 17.2431 17.8525 17.2381C21.1712 10.6718 28.255 8.26341 35.1752 12.8342Z" fill="#7BE3C4"/>
<path d="M22.5818 9.39603C20.4608 10.5219 18.6192 12.3994 17.4028 15.0589C16.8406 16.2994 16.8661 16.5286 16.4675 17.6561C11.1129 12.5106 11.1385 5.02076 17.5885 0C20.6448 2.38482 22.696 5.67975 22.5818 9.39603Z" fill="#7BE3C4"/>
<path d="M17.8607 23.8297C17.0055 29.5903 12.4347 32.9409 6.44465 33.1616C5.17714 28.7746 6.09199 25.06 7.98815 22.6583C13.6868 23.4302 17.3957 19.778 17.4689 19.778C17.9391 19.4999 17.8165 19.3364 17.9255 20.2111C18.0311 20.9359 18.0601 22.5269 17.8607 23.8297Z" fill="#7BE3C4"/>
<path d="M28.7301 33.1633C24.1149 32.9846 20.7928 30.9757 19.1079 28.4644C20.2613 26.0813 20.4759 23.4571 19.9308 20.8718C19.6735 19.665 19.4248 19.1459 19.1454 18.2257C26.4421 19.3145 31.0027 25.2335 28.7301 33.1633Z" fill="#7BE3C4"/>
<path d="M59.9136 17.8634H61.0823V24.0454C59.5797 25.4611 57.4093 26.169 55.1196 26.169C50.087 26.169 46.3901 22.6061 46.3901 17.7926C46.3901 12.9792 50.087 9.41626 55.1434 9.41626C57.5524 9.41626 59.6751 10.1713 61.1539 11.6814L60.3907 12.4837C58.9358 11.0679 57.1946 10.5252 55.1673 10.5252C50.8264 10.5252 47.6065 13.6398 47.6065 17.7926C47.6065 21.9218 50.8264 25.06 55.1673 25.06C56.9323 25.06 58.5541 24.6353 59.9136 23.5499V17.8634Z" fill="black"/>
<path d="M76.7523 21.4027H67.0688L64.9461 26.051H63.6343L71.3143 9.53418H72.5307L80.2107 26.051H78.8989L76.7523 21.4027ZM76.2991 20.3881L71.9106 10.8555L67.5458 20.3881H76.2991Z" fill="black"/>
<path d="M83.2402 9.53418H84.4566V24.9656H94.0686V26.051H83.2402V9.53418Z" fill="black"/>
<path d="M97.1929 9.53418H98.4093V24.9656H108.021V26.051H97.1929V9.53418Z" fill="black"/>
<path d="M122.664 24.9656V26.051H111.144V9.53418H122.306V10.6196H112.36V17.1319H121.257V18.1937H112.36V24.9656H122.664Z" fill="black"/>
<path d="M138.692 26.051L134.709 20.5296C134.184 20.6004 133.659 20.6476 133.087 20.6476H128.317V26.051H127.1V9.53418H133.087C137.284 9.53418 139.813 11.6106 139.813 15.1027C139.813 17.7218 138.382 19.5386 135.901 20.2701L140.075 26.051H138.692ZM133.087 19.5858C136.664 19.5858 138.572 17.9341 138.572 15.1027C138.572 12.2477 136.664 10.6196 133.087 10.6196H128.317V19.5858H133.087Z" fill="black"/>
<path d="M144.273 9.53418H145.489V26.051H144.273V9.53418Z" fill="black"/>
<path d="M162.829 24.9656V26.051H151.309V9.53418H162.471V10.6196H152.525V17.1319H161.422V18.1937H152.525V24.9656H162.829Z" fill="black"/>
<path d="M170.461 10.6196H164.451V9.53418H177.688V10.6196H171.678V26.051H170.461V10.6196Z" fill="black"/>
</g>
<defs>
<clipPath id="clip0_2409_1954">
<rect width="178" height="37" fill="white"/>
</clipPath>
</defs>
</svg>
